<?xml version="1.0" encoding="utf-8"?>
<!-- Generator: Adobe Illustrator 18.0.0, SVG Export Plug-In . SVG Version: 6.00 Build 0)  -->
<!DOCTYPE svg PUBLIC "-//W3C//DTD SVG 1.1//EN" "http://www.w3.org/Graphics/SVG/1.1/DTD/svg11.dtd">
<svg version="1.1" id="Layer_1" xmlns="http://www.w3.org/2000/svg" xmlns:xlink="http://www.w3.org/1999/xlink" x="0px" y="0px"
	 viewBox="0 0 94.4 53.8" enable-background="new 0 0 94.4 53.8" xml:space="preserve">
<g>
	<g>
		<path d="M33.9,22.6c-0.3,0-0.5,0.3-0.5,0.6c0,0.3,0.2,0.5,0.5,0.5c0.3,0,0.5-0.3,0.5-0.6C34.5,22.7,34.2,22.5,33.9,22.6z"/>
		<path d="M14.5,25.1c-0.3,0-0.5,0.2-0.5,0.5c0,0.3,0.2,0.6,0.5,0.6c0.3,0,0.5-0.2,0.5-0.5C15.1,25.4,14.8,25.1,14.5,25.1z"/>
		<path d="M35.4,26c0,0.1,0.1,0.2,0.1,0.3c0.1-0.3,0.1-0.6,0.2-0.9C35.6,25.6,35.4,25.8,35.4,26z"/>
		<path d="M36,22.2c-0.3,0.1-0.5,0.3-0.5,0.6c0,0.3,0.2,0.5,0.5,0.4c0.3-0.1,0.5-0.3,0.5-0.6C36.5,22.4,36.3,22.2,36,22.2z"/>
		<path d="M30.9,24.5c-0.3,0-0.5,0.3-0.5,0.6c0,0.3,0.2,0.5,0.5,0.5c0.3,0,0.5-0.3,0.5-0.6C31.4,24.7,31.2,24.5,30.9,24.5z"/>
		<path d="M32.9,24.2c-0.3,0-0.5,0.3-0.5,0.6c0,0.3,0.2,0.5,0.5,0.5c0.3,0,0.5-0.3,0.5-0.6C33.5,24.4,33.2,24.2,32.9,24.2z"/>
		<path d="M31.9,22.9c-0.3,0-0.5,0.3-0.5,0.6c0,0.3,0.2,0.5,0.5,0.5c0.3,0,0.5-0.3,0.5-0.6C32.4,23,32.2,22.8,31.9,22.9z"/>
		<path d="M30.9,31.9c0.3,0,0.5-0.3,0.5-0.6c0-0.3-0.2-0.5-0.5-0.5c-0.3,0-0.5,0.3-0.5,0.6C30.3,31.8,30.6,32,30.9,31.9z"/>
		<path d="M31.9,33.4c0.3,0,0.5-0.3,0.5-0.6c0-0.3-0.2-0.5-0.5-0.5c-0.3,0-0.5,0.3-0.5,0.6C31.3,33.3,31.6,33.5,31.9,33.4z"/>
		<path d="M29.8,23.1c-0.3,0-0.5,0.3-0.5,0.6c0,0.3,0.2,0.5,0.5,0.5c0.3,0,0.5-0.3,0.5-0.6C30.4,23.3,30.1,23.1,29.8,23.1z"/>
		<path d="M29.8,33.7c0.3,0,0.5-0.3,0.5-0.6c0-0.3-0.2-0.5-0.5-0.5c-0.3,0-0.5,0.3-0.5,0.6C29.3,33.5,29.5,33.8,29.8,33.7z"/>
		<path d="M32.9,31.7c0.3,0,0.5-0.3,0.5-0.6c0-0.3-0.2-0.5-0.5-0.5c-0.3,0-0.5,0.3-0.5,0.6C32.4,31.5,32.6,31.7,32.9,31.7z"/>
		<path d="M33.9,33.1c0.3,0,0.5-0.3,0.5-0.6c0-0.3-0.2-0.5-0.5-0.5c-0.3,0-0.5,0.3-0.5,0.6C33.4,33,33.6,33.2,33.9,33.1z"/>
		<path d="M35,31.3c0.2,0,0.4-0.2,0.5-0.4c0-0.2,0-0.4-0.1-0.6c-0.1-0.1-0.2-0.2-0.4-0.1c-0.3,0-0.5,0.3-0.5,0.6
			C34.4,31.2,34.7,31.4,35,31.3z"/>
		<path d="M19.6,23.8c-0.3,0-0.5,0.2-0.5,0.5c0,0.3,0.2,0.5,0.5,0.5c0.3,0,0.5-0.2,0.5-0.5C20.2,24,19.9,23.8,19.6,23.8z"/>
		<path d="M28.8,24.8c-0.3,0-0.5,0.3-0.5,0.6c0,0.3,0.2,0.5,0.5,0.5c0.3,0,0.5-0.3,0.5-0.6C29.4,25,29.1,24.8,28.8,24.8z"/>
		<path d="M20.7,25.3c-0.3,0-0.5,0.2-0.5,0.5c0,0.3,0.2,0.5,0.5,0.5c0.3,0,0.5-0.2,0.5-0.5C21.2,25.5,21,25.3,20.7,25.3z"/>
		<path d="M17.6,23.7c-0.3,0-0.5,0.2-0.5,0.5c0,0.3,0.2,0.6,0.5,0.6c0.3,0,0.5-0.2,0.5-0.5C18.1,24,17.9,23.8,17.6,23.7z"/>
		<path d="M15.5,23.6c-0.3,0-0.5,0.2-0.5,0.5c0,0.3,0.2,0.6,0.5,0.6c0.3,0,0.5-0.2,0.5-0.5C16.1,23.9,15.8,23.7,15.5,23.6z"/>
		<path d="M21.7,23.8c-0.3,0-0.5,0.3-0.5,0.6c0,0.3,0.2,0.5,0.5,0.5c0.3,0,0.5-0.3,0.5-0.6C22.2,24,22,23.8,21.7,23.8z"/>
		<path d="M16.6,25.2c-0.3,0-0.5,0.2-0.5,0.5c0,0.3,0.2,0.6,0.5,0.6c0.3,0,0.5-0.2,0.5-0.5C17.1,25.5,16.9,25.2,16.6,25.2z"/>
		<path d="M18.6,25.3c-0.3,0-0.5,0.2-0.5,0.5c0,0.3,0.2,0.5,0.5,0.6c0.3,0,0.5-0.2,0.5-0.5C19.2,25.6,18.9,25.3,18.6,25.3z"/>
		<path d="M26.8,25c-0.3,0-0.5,0.3-0.5,0.6c0,0.3,0.2,0.5,0.5,0.5c0.3,0,0.5-0.3,0.5-0.6C27.3,25.2,27.1,25,26.8,25z"/>
		<path d="M27.8,23.4c-0.3,0-0.5,0.3-0.5,0.6c0,0.3,0.2,0.5,0.5,0.5c0.3,0,0.5-0.3,0.5-0.6C28.3,23.6,28.1,23.3,27.8,23.4z"/>
		<path d="M25.8,23.6c-0.3,0-0.5,0.3-0.5,0.6c0,0.3,0.2,0.5,0.5,0.5c0.3,0,0.5-0.3,0.5-0.6C26.3,23.8,26.1,23.5,25.8,23.6z"/>
		<path d="M22.7,25.3c-0.3,0-0.5,0.3-0.5,0.6c0,0.3,0.2,0.5,0.5,0.5c0.3,0,0.5-0.3,0.5-0.6C23.2,25.5,23,25.3,22.7,25.3z"/>
		<path d="M24.7,25.2c-0.3,0-0.5,0.3-0.5,0.6c0,0.3,0.2,0.5,0.5,0.5c0.3,0,0.5-0.3,0.5-0.6C25.3,25.4,25,25.1,24.7,25.2z"/>
		<path d="M23.7,23.7c-0.3,0-0.5,0.3-0.5,0.6c0,0.3,0.2,0.5,0.5,0.5c0.3,0,0.5-0.3,0.5-0.6C24.3,23.9,24,23.7,23.7,23.7z"/>
		<path d="M35,23.9c-0.3,0-0.5,0.3-0.5,0.6c0,0.3,0.2,0.5,0.5,0.5c0.3,0,0.5-0.3,0.5-0.6C35.5,24.1,35.3,23.9,35,23.9z"/>
		<path d="M17.6,26.9c-0.3,0-0.5,0.2-0.5,0.5s0.2,0.6,0.5,0.6c0.3,0,0.5-0.2,0.5-0.5C18.1,27.2,17.9,26.9,17.6,26.9z"/>
		<path d="M18.6,28.5c-0.3,0-0.5,0.2-0.5,0.5c0,0.3,0.2,0.5,0.5,0.6c0.3,0,0.5-0.2,0.5-0.5C19.2,28.7,18.9,28.5,18.6,28.5z"/>
		<path d="M14.5,32.5c0.3,0,0.5-0.2,0.5-0.5c0-0.3-0.2-0.6-0.5-0.6c-0.3,0-0.5,0.2-0.5,0.5C14,32.2,14.2,32.5,14.5,32.5z"/>
		<path d="M16.6,28.4c-0.3,0-0.5,0.2-0.5,0.5c0,0.3,0.2,0.6,0.5,0.6c0.3,0,0.5-0.2,0.5-0.5C17.1,28.7,16.9,28.4,16.6,28.4z"/>
		<path d="M14.5,28.2c-0.3,0-0.5,0.2-0.5,0.5c0,0.3,0.2,0.6,0.5,0.6c0.3,0,0.5-0.2,0.5-0.5C15.1,28.5,14.8,28.3,14.5,28.2z"/>
		<path d="M15.5,26.8c-0.3,0-0.5,0.2-0.5,0.5c0,0.3,0.2,0.6,0.5,0.6c0.3,0,0.5-0.2,0.5-0.5C16.1,27.1,15.8,26.8,15.5,26.8z"/>
		<path d="M15.5,30c-0.3,0-0.5,0.2-0.5,0.5c0,0.3,0.2,0.6,0.5,0.6c0.3,0,0.5-0.2,0.5-0.5C16.1,30.2,15.8,30,15.5,30z"/>
		<path d="M17.6,30.1c-0.3,0-0.5,0.2-0.5,0.5c0,0.3,0.2,0.6,0.5,0.6c0.3,0,0.5-0.2,0.5-0.5C18.1,30.3,17.9,30.1,17.6,30.1z"/>
		<path d="M21.7,30.1c-0.3,0-0.5,0.3-0.5,0.6c0,0.3,0.2,0.5,0.5,0.5c0.3,0,0.5-0.3,0.5-0.6C22.2,30.3,22,30.1,21.7,30.1z"/>
		<path d="M22.7,28.4c-0.3,0-0.5,0.3-0.5,0.6c0,0.3,0.2,0.5,0.5,0.5c0.3,0,0.5-0.3,0.5-0.6C23.2,28.6,23,28.4,22.7,28.4z"/>
		<path d="M21.7,26.9c-0.3,0-0.5,0.3-0.5,0.6c0,0.3,0.2,0.5,0.5,0.5c0.3,0,0.5-0.3,0.5-0.6C22.2,27.2,22,26.9,21.7,26.9z"/>
		<path d="M19.6,27c-0.3,0-0.5,0.2-0.5,0.5c0,0.3,0.2,0.5,0.5,0.5c0.3,0,0.5-0.2,0.5-0.5C20.2,27.2,19.9,27,19.6,27z"/>
		<path d="M19.6,30.1c-0.3,0-0.5,0.2-0.5,0.5c0,0.3,0.2,0.5,0.5,0.5c0.3,0,0.5-0.2,0.5-0.5C20.2,30.4,19.9,30.1,19.6,30.1z"/>
		<path d="M20.7,28.5c-0.3,0-0.5,0.2-0.5,0.5c0,0.3,0.2,0.5,0.5,0.5c0.3,0,0.5-0.2,0.5-0.5C21.2,28.7,21,28.5,20.7,28.5z"/>
		<path d="M25.8,34.1c0.3,0,0.5-0.3,0.5-0.6c0-0.3-0.2-0.5-0.5-0.5c-0.3,0-0.5,0.3-0.5,0.6C25.2,33.9,25.5,34.2,25.8,34.1z"/>
		<path d="M24.7,32.6c0.3,0,0.5-0.3,0.5-0.6c0-0.3-0.2-0.5-0.5-0.5c-0.3,0-0.5,0.3-0.5,0.6C24.2,32.4,24.4,32.6,24.7,32.6z"/>
		<path d="M23.7,34.3c0.3,0,0.5-0.3,0.5-0.6c0-0.3-0.2-0.5-0.5-0.5c-0.3,0-0.5,0.3-0.5,0.6C23.2,34,23.4,34.3,23.7,34.3z"/>
		<path d="M28.8,32.2c0.3,0,0.5-0.3,0.5-0.6c0-0.3-0.2-0.5-0.5-0.5c-0.3,0-0.5,0.3-0.5,0.6C28.3,32,28.5,32.2,28.8,32.2z"/>
		<path d="M22.7,32.7c0.3,0,0.5-0.3,0.5-0.6c0-0.3-0.2-0.5-0.5-0.5c-0.3,0-0.5,0.3-0.5,0.6C22.2,32.4,22.4,32.7,22.7,32.7z"/>
		<path d="M26.8,32.4c0.3,0,0.5-0.3,0.5-0.6c0-0.3-0.2-0.5-0.5-0.5c-0.3,0-0.5,0.3-0.5,0.6C26.2,32.2,26.5,32.4,26.8,32.4z"/>
		<path d="M27.8,33.9c0.3,0,0.5-0.3,0.5-0.6c0-0.3-0.2-0.5-0.5-0.5c-0.3,0-0.5,0.3-0.5,0.6C27.3,33.8,27.5,34,27.8,33.9z"/>
		<path d="M17.6,34.3c0.3,0,0.5-0.2,0.5-0.5c0-0.3-0.2-0.5-0.5-0.6c-0.3,0-0.5,0.2-0.5,0.5C17,34.1,17.3,34.3,17.6,34.3z"/>
		<path d="M18.6,32.7c0.3,0,0.5-0.2,0.5-0.5c0-0.3-0.2-0.5-0.5-0.5c-0.3,0-0.5,0.2-0.5,0.5C18.1,32.5,18.3,32.7,18.6,32.7z"/>
		<path d="M21.7,34.3c0.3,0,0.5-0.3,0.5-0.6c0-0.3-0.2-0.5-0.5-0.5c-0.3,0-0.5,0.3-0.5,0.6C21.1,34.1,21.4,34.4,21.7,34.3z"/>
		<path d="M16.6,32.6c0.3,0,0.5-0.2,0.5-0.5c0-0.3-0.2-0.6-0.5-0.6c-0.3,0-0.5,0.2-0.5,0.5C16,32.4,16.3,32.6,16.6,32.6z"/>
		<path d="M15.5,34.2c0.3,0,0.5-0.2,0.5-0.5c0-0.3-0.2-0.6-0.5-0.6c-0.3,0-0.5,0.2-0.5,0.5C15,33.9,15.2,34.2,15.5,34.2z"/>
		<path d="M20.7,32.7c0.3,0,0.5-0.2,0.5-0.5c0-0.3-0.2-0.5-0.5-0.5c-0.3,0-0.5,0.2-0.5,0.5C20.1,32.5,20.4,32.7,20.7,32.7z"/>
		<circle cx="19.6" cy="33.8" r="0.5"/>
		<path d="M80.9,30.4c0.3,0,0.5-0.2,0.5-0.5c0-0.3-0.2-0.6-0.5-0.6c-0.3,0-0.5,0.2-0.5,0.5C80.4,30.1,80.6,30.3,80.9,30.4z"/>
		<path d="M68.7,30.3c0.3,0,0.5-0.3,0.5-0.6c0-0.3-0.2-0.5-0.5-0.5c-0.3,0-0.5,0.3-0.5,0.6C68.1,30.1,68.4,30.3,68.7,30.3z"/>
		<path d="M69.7,28.6c0.3,0,0.5-0.3,0.5-0.6c0-0.3-0.2-0.5-0.5-0.5c-0.3,0-0.5,0.3-0.5,0.6C69.1,28.4,69.4,28.6,69.7,28.6z"/>
		<path d="M66.6,30.5c0.3,0,0.5-0.3,0.5-0.6c0-0.3-0.2-0.5-0.5-0.5c-0.3,0-0.5,0.3-0.5,0.6C66.1,30.3,66.3,30.5,66.6,30.5z"/>
		<path d="M59.5,29.8c0.3,0,0.5-0.3,0.5-0.6c0-0.3-0.2-0.5-0.5-0.5s-0.5,0.3-0.5,0.6C58.9,29.6,59.2,29.8,59.5,29.8z"/>
		<path d="M72.7,30.1c0.3,0,0.5-0.3,0.5-0.6c0-0.3-0.2-0.5-0.5-0.5c-0.3,0-0.5,0.3-0.5,0.6C72.2,29.8,72.4,30.1,72.7,30.1z"/>
		<path d="M71.7,28.5c0.3,0,0.5-0.3,0.5-0.6c0-0.3-0.2-0.5-0.5-0.5c-0.3,0-0.5,0.3-0.5,0.6C71.2,28.2,71.4,28.5,71.7,28.5z"/>
		<path d="M73.8,28.4c0.3,0,0.5-0.2,0.5-0.5c0-0.3-0.2-0.5-0.5-0.5c-0.3,0-0.5,0.2-0.5,0.5C73.2,28.2,73.5,28.4,73.8,28.4z"/>
		<path d="M70.7,30.1c0.3,0,0.5-0.3,0.5-0.6c0-0.3-0.2-0.5-0.5-0.5c-0.3,0-0.5,0.3-0.5,0.6C70.2,29.9,70.4,30.2,70.7,30.1z"/>
		<path d="M61.5,29.5c0.3,0,0.5-0.3,0.5-0.6c0-0.3-0.2-0.5-0.5-0.5c-0.3,0-0.5,0.3-0.5,0.6C61,29.3,61.2,29.5,61.5,29.5z"/>
		<path d="M65.6,28.9c0.3,0,0.5-0.3,0.5-0.6c0-0.3-0.2-0.5-0.5-0.5c-0.3,0-0.5,0.3-0.5,0.6C65.1,28.8,65.3,29,65.6,28.9z"/>
		<path d="M60.5,31.3c0.3,0,0.5-0.3,0.5-0.6c0-0.3-0.2-0.5-0.5-0.5c-0.3,0-0.5,0.3-0.5,0.6C59.9,31.1,60.2,31.3,60.5,31.3z"/>
		<path d="M62.5,31c0.3,0,0.5-0.3,0.5-0.6c0-0.3-0.2-0.5-0.5-0.5c-0.3,0-0.5,0.3-0.5,0.6C62,30.8,62.2,31,62.5,31z"/>
		<path d="M64.6,30.7c0.3,0,0.5-0.3,0.5-0.6c0-0.3-0.2-0.5-0.5-0.5S64,29.9,64,30.2C64,30.5,64.3,30.7,64.6,30.7z"/>
		<path d="M63.6,29.2c0.3,0,0.5-0.3,0.5-0.6c0-0.3-0.2-0.5-0.5-0.5c-0.3,0-0.5,0.3-0.5,0.6C63,29,63.3,29.2,63.6,29.2z"/>
		<path d="M13.5,23.5c-0.3,0-0.5,0.2-0.5,0.5c0,0.3,0.2,0.6,0.5,0.6c0.3,0,0.5-0.2,0.5-0.5C14,23.7,13.8,23.5,13.5,23.5z"/>
		<path d="M74.8,30c0.3,0,0.5-0.2,0.5-0.5c0-0.3-0.2-0.5-0.5-0.5c-0.3,0-0.5,0.2-0.5,0.5C74.2,29.8,74.5,30,74.8,30z"/>
		<path d="M80.9,19.8c-0.3,0-0.5,0.2-0.5,0.5c0,0.3,0.2,0.6,0.5,0.6c0.3,0,0.5-0.2,0.5-0.5C81.5,20.1,81.2,19.8,80.9,19.8z"/>
		<path d="M80.9,23c-0.3,0-0.5,0.2-0.5,0.5c0,0.3,0.2,0.6,0.5,0.6c0.3,0,0.5-0.2,0.5-0.5C81.5,23.3,81.2,23,80.9,23z"/>
		<path d="M80.9,16.6c-0.3,0-0.5,0.2-0.5,0.5c0,0.3,0.2,0.6,0.5,0.6c0.3,0,0.5-0.2,0.5-0.5S81.2,16.7,80.9,16.6z"/>
		<path d="M78.9,13.3c-0.3,0-0.5,0.2-0.5,0.5c0,0.3,0.2,0.6,0.5,0.6c0.3,0,0.5-0.2,0.5-0.5C79.4,13.6,79.2,13.3,78.9,13.3z"/>
		<path d="M79.9,14.9c-0.3,0-0.5,0.2-0.5,0.5c0,0.3,0.2,0.6,0.5,0.6c0.3,0,0.5-0.2,0.5-0.5C80.4,15.2,80.2,14.9,79.9,14.9z"/>
		<path d="M80.9,13.5c-0.3,0-0.5,0.2-0.5,0.5c0,0.3,0.2,0.6,0.5,0.6c0.3,0,0.5-0.2,0.5-0.5C81.5,13.8,81.2,13.5,80.9,13.5z"/>
		<path d="M80.9,26.1c-0.3,0-0.5,0.2-0.5,0.5c0,0.3,0.2,0.6,0.5,0.6c0.3,0,0.5-0.2,0.5-0.5C81.5,26.4,81.2,26.2,80.9,26.1z"/>
		<path d="M23.7,26.9c-0.3,0-0.5,0.3-0.5,0.6c0,0.3,0.2,0.5,0.5,0.5c0.3,0,0.5-0.3,0.5-0.6C24.3,27.1,24,26.8,23.7,26.9z"/>
		<path d="M77.9,28.5c0.3,0,0.5-0.2,0.5-0.5c0-0.3-0.2-0.6-0.5-0.6c-0.3,0-0.5,0.2-0.5,0.5C77.3,28.2,77.6,28.5,77.9,28.5z"/>
		<path d="M75.8,28.4c0.3,0,0.5-0.2,0.5-0.5c0-0.3-0.2-0.5-0.5-0.6c-0.3,0-0.5,0.2-0.5,0.5C75.3,28.2,75.5,28.4,75.8,28.4z"/>
		<path d="M76.8,30.1c0.3,0,0.5-0.2,0.5-0.5c0-0.3-0.2-0.6-0.5-0.6c-0.3,0-0.5,0.2-0.5,0.5C76.3,29.8,76.5,30.1,76.8,30.1z"/>
		<path d="M78.9,30.2c0.3,0,0.5-0.2,0.5-0.5c0-0.3-0.2-0.6-0.5-0.6c-0.3,0-0.5,0.2-0.5,0.5C78.3,29.9,78.6,30.2,78.9,30.2z"/>
		<path d="M79.9,28.6c0.3,0,0.5-0.2,0.5-0.5c0-0.3-0.2-0.6-0.5-0.6c-0.3,0-0.5,0.2-0.5,0.5C79.4,28.4,79.6,28.6,79.9,28.6z"/>
		<path d="M67.6,28.7c0.3,0,0.5-0.3,0.5-0.6c0-0.3-0.2-0.5-0.5-0.5c-0.3,0-0.5,0.3-0.5,0.6C67.1,28.5,67.3,28.8,67.6,28.7z"/>
		<circle cx="19.6" cy="37" r="0.5"/>
		<path d="M18.6,35.9c0.3,0,0.5-0.2,0.5-0.5c0-0.3-0.2-0.5-0.5-0.5c-0.3,0-0.5,0.2-0.5,0.5C18.1,35.6,18.3,35.9,18.6,35.9z"/>
		<path d="M17.6,37.5c0.3,0,0.5-0.2,0.5-0.5c0-0.3-0.2-0.5-0.5-0.6c-0.3,0-0.5,0.2-0.5,0.5C17,37.2,17.3,37.5,17.6,37.5z"/>
		<path d="M16.6,35.8c0.3,0,0.5-0.2,0.5-0.5c0-0.3-0.2-0.6-0.5-0.6c-0.3,0-0.5,0.2-0.5,0.5C16,35.5,16.3,35.8,16.6,35.8z"/>
		<path d="M22.7,35.8c0.3,0,0.5-0.3,0.5-0.6c0-0.3-0.2-0.5-0.5-0.5c-0.3,0-0.5,0.3-0.5,0.6C22.2,35.6,22.4,35.8,22.7,35.8z"/>
		<path d="M23.7,37.4c0.3,0,0.5-0.3,0.5-0.6c0-0.3-0.2-0.5-0.5-0.5c-0.3,0-0.5,0.3-0.5,0.6C23.2,37.2,23.4,37.4,23.7,37.4z"/>
		<path d="M21.7,37.5c0.3,0,0.5-0.3,0.5-0.6c0-0.3-0.2-0.5-0.5-0.5c-0.3,0-0.5,0.3-0.5,0.6C21.1,37.3,21.4,37.5,21.7,37.5z"/>
		<path d="M20.7,35.9c0.3,0,0.5-0.2,0.5-0.5c0-0.3-0.2-0.5-0.5-0.5c-0.3,0-0.5,0.2-0.5,0.5C20.1,35.6,20.4,35.9,20.7,35.9z"/>
		<path d="M58.4,31.6c0.3-0.1,0.5-0.3,0.5-0.6c0-0.3-0.2-0.5-0.5-0.4c-0.3,0.1-0.5,0.3-0.5,0.6C57.9,31.5,58.1,31.7,58.4,31.6z"/>
		<path d="M13.5,30.9c0.3,0,0.5-0.2,0.5-0.5c0-0.3-0.2-0.6-0.5-0.6c-0.3,0-0.5,0.2-0.5,0.5C13,30.6,13.2,30.8,13.5,30.9z"/>
		<path d="M13.5,27.7c0.3,0,0.5-0.2,0.5-0.5c0-0.3-0.2-0.6-0.5-0.6c-0.3,0-0.5,0.2-0.5,0.5C13,27.4,13.2,27.7,13.5,27.7z"/>
		<path d="M13.5,37.2c0.3,0,0.5-0.2,0.5-0.5c0-0.3-0.2-0.6-0.5-0.6c-0.3,0-0.5,0.2-0.5,0.5C13,36.9,13.2,37.2,13.5,37.2z"/>
		<path d="M15.5,37.4c0.3,0,0.5-0.2,0.5-0.5c0-0.3-0.2-0.6-0.5-0.6c-0.3,0-0.5,0.2-0.5,0.5C15,37.1,15.2,37.4,15.5,37.4z"/>
		<path d="M14.5,35.7c0.3,0,0.5-0.2,0.5-0.5c0-0.3-0.2-0.6-0.5-0.6c-0.3,0-0.5,0.2-0.5,0.5C14,35.4,14.2,35.6,14.5,35.7z"/>
		<path d="M13.5,34c0.3,0,0.5-0.2,0.5-0.5c0-0.3-0.2-0.6-0.5-0.6c-0.3,0-0.5,0.2-0.5,0.5C13,33.7,13.2,34,13.5,34z"/>
		<path d="M33.9,36.3c0.3,0,0.5-0.3,0.5-0.6c0-0.3-0.2-0.5-0.5-0.5c-0.3,0-0.5,0.3-0.5,0.6C33.4,36.1,33.6,36.4,33.9,36.3z"/>
		<path d="M35,34.5c0.3,0,0.5-0.3,0.5-0.6c0-0.3-0.2-0.5-0.5-0.5c-0.3,0-0.5,0.3-0.5,0.6C34.4,34.3,34.7,34.6,35,34.5z"/>
		<path d="M24.7,35.7c0.3,0,0.5-0.3,0.5-0.6c0-0.3-0.2-0.5-0.5-0.5c-0.3,0-0.5,0.3-0.5,0.6C24.2,35.5,24.4,35.7,24.7,35.7z"/>
		<path d="M32.9,34.8c0.3,0,0.5-0.3,0.5-0.6s-0.2-0.5-0.5-0.5c-0.3,0-0.5,0.3-0.5,0.6C32.4,34.7,32.6,34.9,32.9,34.8z"/>
		<path d="M36,36c0.3-0.1,0.5-0.3,0.5-0.6c0-0.3-0.2-0.5-0.5-0.4c-0.3,0.1-0.5,0.3-0.5,0.6C35.4,35.8,35.7,36,36,36z"/>
		<path d="M59,27.8c0-0.1-0.1-0.2-0.1-0.3c-0.1,0.3-0.1,0.6-0.2,0.9C58.9,28.2,59,28,59,27.8z"/>
		<path d="M35.4,32.4c0,0.2,0.1,0.4,0.3,0.4c-0.1-0.3-0.1-0.5-0.2-0.8C35.5,32.1,35.4,32.2,35.4,32.4z"/>
		<path d="M31.9,36.6c0.3,0,0.5-0.3,0.5-0.6c0-0.3-0.2-0.5-0.5-0.5c-0.3,0-0.5,0.3-0.5,0.6C31.3,36.4,31.6,36.7,31.9,36.6z"/>
		<path d="M30.9,35.1c0.3,0,0.5-0.3,0.5-0.6c0-0.3-0.2-0.5-0.5-0.5c-0.3,0-0.5,0.3-0.5,0.6C30.3,34.9,30.6,35.2,30.9,35.1z"/>
		<path d="M25.8,37.3c0.3,0,0.5-0.3,0.5-0.6c0-0.3-0.2-0.5-0.5-0.5c-0.3,0-0.5,0.3-0.5,0.6C25.2,37.1,25.5,37.3,25.8,37.3z"/>
		<path d="M27.8,37.1c0.3,0,0.5-0.3,0.5-0.6c0-0.3-0.2-0.5-0.5-0.5c-0.3,0-0.5,0.3-0.5,0.6C27.3,36.9,27.5,37.1,27.8,37.1z"/>
		<path d="M26.8,35.6c0.3,0,0.5-0.3,0.5-0.6c0-0.3-0.2-0.5-0.5-0.5c-0.3,0-0.5,0.3-0.5,0.6C26.2,35.4,26.5,35.6,26.8,35.6z"/>
		<path d="M29.8,36.9c0.3,0,0.5-0.3,0.5-0.6c0-0.3-0.2-0.5-0.5-0.5c-0.3,0-0.5,0.3-0.5,0.6C29.3,36.7,29.5,36.9,29.8,36.9z"/>
		<path d="M28.8,35.4c0.3,0,0.5-0.3,0.5-0.6c0-0.3-0.2-0.5-0.5-0.5c-0.3,0-0.5,0.3-0.5,0.6C28.3,35.2,28.5,35.4,28.8,35.4z"/>
		<path d="M60.5,23.9c-0.3,0-0.5,0.3-0.5,0.6c0,0.3,0.2,0.5,0.5,0.5c0.3,0,0.5-0.3,0.5-0.6C61,24,60.8,23.8,60.5,23.9z"/>
		<path d="M61.5,22.1c-0.3,0-0.5,0.3-0.5,0.6c0,0.3,0.2,0.5,0.5,0.5c0.3,0,0.5-0.3,0.5-0.6C62.1,22.2,61.8,22,61.5,22.1z"/>
		<path d="M60.5,20.7c-0.3,0-0.5,0.3-0.5,0.6c0,0.3,0.2,0.5,0.5,0.5c0.3,0,0.5-0.3,0.5-0.6C61,20.8,60.8,20.6,60.5,20.7z"/>
		<path d="M59.5,22.4c-0.2,0-0.4,0.2-0.5,0.4c0,0.2,0,0.3,0.1,0.5c0.1,0.1,0.2,0.2,0.4,0.2c0.3,0,0.5-0.3,0.5-0.6
			S59.8,22.3,59.5,22.4z"/>
		<path d="M65.6,25.8c0.3,0,0.5-0.3,0.5-0.6c0-0.3-0.2-0.5-0.5-0.5c-0.3,0-0.5,0.3-0.5,0.6C65.1,25.6,65.3,25.8,65.6,25.8z"/>
		<path d="M69.7,25.4c0.3,0,0.5-0.3,0.5-0.6c0-0.3-0.2-0.5-0.5-0.5c-0.3,0-0.5,0.3-0.5,0.6C69.1,25.2,69.4,25.4,69.7,25.4z"/>
		<path d="M64.6,27.5c0.3,0,0.5-0.3,0.5-0.6c0-0.3-0.2-0.5-0.5-0.5c-0.3,0-0.5,0.3-0.5,0.6C64,27.3,64.3,27.6,64.6,27.5z"/>
		<path d="M68.7,27.1c0.3,0,0.5-0.3,0.5-0.6c0-0.3-0.2-0.5-0.5-0.5c-0.3,0-0.5,0.3-0.5,0.6C68.1,26.9,68.4,27.1,68.7,27.1z"/>
		<path d="M67.6,25.6c0.3,0,0.5-0.3,0.5-0.6c0-0.3-0.2-0.5-0.5-0.5c-0.3,0-0.5,0.3-0.5,0.6C67.1,25.4,67.3,25.6,67.6,25.6z"/>
		<path d="M66.6,27.3c0.3,0,0.5-0.3,0.5-0.6c0-0.3-0.2-0.5-0.5-0.5c-0.3,0-0.5,0.3-0.5,0.6C66.1,27.1,66.3,27.3,66.6,27.3z"/>
		<path d="M62.5,27.8c0.3,0,0.5-0.3,0.5-0.6c0-0.3-0.2-0.5-0.5-0.5c-0.3,0-0.5,0.3-0.5,0.6C62,27.6,62.2,27.8,62.5,27.8z"/>
		<path d="M62.5,20.4c-0.3,0-0.5,0.3-0.5,0.6c0,0.3,0.2,0.5,0.5,0.5c0.3,0,0.5-0.3,0.5-0.6C63.1,20.6,62.8,20.3,62.5,20.4z"/>
		<path d="M61.5,26.3c0.3,0,0.5-0.3,0.5-0.6c0-0.3-0.2-0.5-0.5-0.5c-0.3,0-0.5,0.3-0.5,0.6C61,26.1,61.2,26.3,61.5,26.3z"/>
		<path d="M59.5,26.6c0.3,0,0.5-0.3,0.5-0.6c0-0.3-0.2-0.5-0.5-0.5c-0.2,0-0.3,0.1-0.4,0.3c0,0.2,0,0.4-0.1,0.6
			C59.1,26.6,59.3,26.7,59.5,26.6z"/>
		<path d="M60.5,28.1c0.3,0,0.5-0.3,0.5-0.6c0-0.3-0.2-0.5-0.5-0.5c-0.3,0-0.5,0.3-0.5,0.6C59.9,27.9,60.2,28.1,60.5,28.1z"/>
		<path d="M63.6,26c0.3,0,0.5-0.3,0.5-0.6c0-0.3-0.2-0.5-0.5-0.5c-0.3,0-0.5,0.3-0.5,0.6C63,25.8,63.3,26.1,63.6,26z"/>
		<path d="M76.8,19.5c-0.3,0-0.5,0.2-0.5,0.5c0,0.3,0.2,0.5,0.5,0.6c0.3,0,0.5-0.2,0.5-0.5C77.4,19.8,77.1,19.5,76.8,19.5z"/>
		<path d="M62.5,23.5c-0.3,0-0.5,0.3-0.5,0.6c0,0.3,0.2,0.5,0.5,0.5c0.3,0,0.5-0.3,0.5-0.6C63.1,23.7,62.8,23.5,62.5,23.5z"/>
		<path d="M76.8,22.7c-0.3,0-0.5,0.2-0.5,0.5c0,0.3,0.2,0.5,0.5,0.6c0.3,0,0.5-0.2,0.5-0.5C77.4,22.9,77.1,22.7,76.8,22.7z"/>
		<path d="M73.8,21c-0.3,0-0.5,0.2-0.5,0.5c0,0.3,0.2,0.5,0.5,0.5c0.3,0,0.5-0.2,0.5-0.5C74.3,21.2,74.1,21,73.8,21z"/>
		<path d="M77.9,21.1c-0.3,0-0.5,0.2-0.5,0.5c0,0.3,0.2,0.6,0.5,0.6c0.3,0,0.5-0.2,0.5-0.5C78.4,21.4,78.2,21.1,77.9,21.1z"/>
		<circle cx="74.8" cy="23.2" r="0.5"/>
		<circle cx="74.8" cy="20" r="0.5"/>
		<path d="M78.9,19.6c-0.3,0-0.5,0.2-0.5,0.5c0,0.3,0.2,0.6,0.5,0.6c0.3,0,0.5-0.2,0.5-0.5C79.4,19.9,79.2,19.6,78.9,19.6z"/>
		<path d="M81.9,13c0.3,0,0.5-0.2,0.5-0.5c0-0.3-0.2-0.6-0.5-0.6c-0.3,0-0.5,0.2-0.5,0.5C81.4,12.7,81.6,13,81.9,13z"/>
		<path d="M78.3,23.3c0,0.3,0.2,0.6,0.5,0.6c0.3,0,0.5-0.2,0.5-0.5c0-0.3-0.2-0.6-0.5-0.6C78.6,22.8,78.3,23,78.3,23.3z"/>
		<path d="M83,11.7c0.3,0,0.5-0.2,0.5-0.5c0-0.3-0.2-0.6-0.5-0.6c-0.3,0-0.5,0.2-0.5,0.5C82.4,11.3,82.7,11.6,83,11.7z"/>
		<path d="M38,37.7c-0.3,0.1-0.5,0.3-0.5,0.6c0,0.3,0.2,0.5,0.5,0.4c0.3-0.1,0.5-0.3,0.5-0.6c0,0,0,0,0,0c-0.1-0.1-0.3-0.3-0.4-0.4
			C38.1,37.7,38.1,37.7,38,37.7z"/>
		<path d="M56.4,16.1c0.3-0.1,0.5-0.3,0.5-0.6c0-0.3-0.2-0.5-0.5-0.4c-0.3,0.1-0.5,0.3-0.5,0.6c0,0,0,0,0,0c0.1,0.1,0.3,0.3,0.4,0.4
			C56.3,16.1,56.4,16.1,56.4,16.1z"/>
		<path d="M72.7,22.7c-0.3,0-0.5,0.3-0.5,0.6c0,0.3,0.2,0.5,0.5,0.5c0.3,0,0.5-0.3,0.5-0.6C73.3,22.9,73,22.6,72.7,22.7z"/>
		<path d="M75.8,21c-0.3,0-0.5,0.2-0.5,0.5c0,0.3,0.2,0.5,0.5,0.5c0.3,0,0.5-0.2,0.5-0.5C76.3,21.3,76.1,21,75.8,21z"/>
		<path d="M65.6,21.5c-0.3,0-0.5,0.3-0.5,0.6c0,0.3,0.2,0.5,0.5,0.5c0.3,0,0.5-0.3,0.5-0.6C66.1,21.7,65.9,21.5,65.6,21.5z"/>
		<path d="M66.6,19.9c-0.3,0-0.5,0.3-0.5,0.6c0,0.3,0.2,0.5,0.5,0.5c0.3,0,0.5-0.3,0.5-0.6C67.2,20.1,66.9,19.9,66.6,19.9z"/>
		<path d="M66.6,23.1c-0.3,0-0.5,0.3-0.5,0.6c0,0.3,0.2,0.5,0.5,0.5c0.3,0,0.5-0.3,0.5-0.6C67.2,23.2,66.9,23,66.6,23.1z"/>
		<path d="M63.6,21.8c-0.3,0-0.5,0.3-0.5,0.6c0,0.3,0.2,0.5,0.5,0.5c0.3,0,0.5-0.3,0.5-0.6C64.1,21.9,63.9,21.7,63.6,21.8z"/>
		<path d="M64.6,23.3c-0.3,0-0.5,0.3-0.5,0.6c0,0.3,0.2,0.5,0.5,0.5c0.3,0,0.5-0.3,0.5-0.6C65.1,23.5,64.9,23.2,64.6,23.3z"/>
		<path d="M67.6,21.3c-0.3,0-0.5,0.3-0.5,0.6c0,0.3,0.2,0.5,0.5,0.5c0.3,0,0.5-0.3,0.5-0.6C68.2,21.5,67.9,21.3,67.6,21.3z"/>
		<path d="M64.6,20.1c-0.3,0-0.5,0.3-0.5,0.6c0,0.3,0.2,0.5,0.5,0.5c0.3,0,0.5-0.3,0.5-0.6C65.1,20.3,64.9,20.1,64.6,20.1z"/>
		<path d="M72.7,19.5c-0.3,0-0.5,0.3-0.5,0.6c0,0.3,0.2,0.5,0.5,0.5c0.3,0,0.5-0.3,0.5-0.6C73.3,19.7,73,19.5,72.7,19.5z"/>
		<path d="M70.7,19.6c-0.3,0-0.5,0.3-0.5,0.6c0,0.3,0.2,0.5,0.5,0.5c0.3,0,0.5-0.3,0.5-0.6C71.2,19.8,71,19.6,70.7,19.6z"/>
		<path d="M70.7,22.7c-0.3,0-0.5,0.3-0.5,0.6c0,0.3,0.2,0.5,0.5,0.5c0.3,0,0.5-0.3,0.5-0.6C71.2,22.9,71,22.7,70.7,22.7z"/>
		<path d="M68.7,19.7c-0.3,0-0.5,0.3-0.5,0.6c0,0.3,0.2,0.5,0.5,0.5c0.3,0,0.5-0.3,0.5-0.6C69.2,19.9,69,19.7,68.7,19.7z"/>
		<path d="M71.7,21c-0.3,0-0.5,0.3-0.5,0.6c0,0.3,0.2,0.5,0.5,0.5c0.3,0,0.5-0.3,0.5-0.6C72.3,21.3,72,21,71.7,21z"/>
		<path d="M68.7,22.9c-0.3,0-0.5,0.3-0.5,0.6c0,0.3,0.2,0.5,0.5,0.5c0.3,0,0.5-0.3,0.5-0.6C69.2,23.1,69,22.8,68.7,22.9z"/>
		<path d="M69.7,21.2c-0.3,0-0.5,0.3-0.5,0.6c0,0.3,0.2,0.5,0.5,0.5c0.3,0,0.5-0.3,0.5-0.6C70.2,21.4,70,21.1,69.7,21.2z"/>
		<path d="M25.8,29.9c-0.3,0-0.5,0.3-0.5,0.6c0,0.3,0.2,0.5,0.5,0.5c0.3,0,0.5-0.3,0.5-0.6C26.3,30.1,26.1,29.9,25.8,29.9z"/>
		<path d="M61.5,18.9c-0.3,0-0.5,0.3-0.5,0.6c0,0.3,0.2,0.5,0.5,0.5c0.3,0,0.5-0.3,0.5-0.6C62.1,19.1,61.8,18.9,61.5,18.9z"/>
		<path d="M33.9,28.9c-0.3,0-0.5,0.3-0.5,0.6c0,0.3,0.2,0.5,0.5,0.5c0.3,0,0.5-0.3,0.5-0.6C34.5,29.1,34.2,28.8,33.9,28.9z"/>
		<path d="M35,27.1c-0.3,0-0.5,0.3-0.5,0.6c0,0.3,0.2,0.5,0.5,0.5c0.2,0,0.3-0.1,0.4-0.3c0-0.2,0-0.4,0.1-0.5
			C35.4,27.2,35.2,27.1,35,27.1z"/>
		<path d="M60.5,17.5c-0.3,0-0.5,0.3-0.5,0.6c0,0.3,0.2,0.5,0.5,0.5c0.3,0,0.5-0.3,0.5-0.6C61,17.7,60.8,17.5,60.5,17.5z"/>
		<path d="M58.4,17.9c-0.3,0.1-0.5,0.3-0.5,0.6c0,0.3,0.2,0.5,0.5,0.4c0.3-0.1,0.5-0.3,0.5-0.6C59,18,58.7,17.8,58.4,17.9z"/>
		<path d="M59.5,19.2c-0.3,0-0.5,0.3-0.5,0.6c0,0.3,0.2,0.5,0.5,0.5c0.3,0,0.5-0.3,0.5-0.6S59.8,19.2,59.5,19.2z"/>
		<path d="M59,21.5c0-0.2-0.1-0.4-0.3-0.4c0.1,0.3,0.1,0.5,0.2,0.8C58.9,21.7,59,21.6,59,21.5z"/>
		<path d="M77.9,14.8c-0.3,0-0.5,0.2-0.5,0.5c0,0.3,0.2,0.6,0.5,0.6c0.3,0,0.5-0.2,0.5-0.5C78.4,15,78.2,14.8,77.9,14.8z"/>
		<path d="M27.8,26.5c-0.3,0-0.5,0.3-0.5,0.6c0,0.3,0.2,0.5,0.5,0.5c0.3,0,0.5-0.3,0.5-0.6C28.3,26.7,28.1,26.5,27.8,26.5z"/>
		<path d="M28.8,28c-0.3,0-0.5,0.3-0.5,0.6c0,0.3,0.2,0.5,0.5,0.5c0.3,0,0.5-0.3,0.5-0.6C29.4,28.1,29.1,27.9,28.8,28z"/>
		<path d="M26.8,28.2c-0.3,0-0.5,0.3-0.5,0.6c0,0.3,0.2,0.5,0.5,0.5c0.3,0,0.5-0.3,0.5-0.6C27.3,28.3,27.1,28.1,26.8,28.2z"/>
		<path d="M27.8,29.7c-0.3,0-0.5,0.3-0.5,0.6c0,0.3,0.2,0.5,0.5,0.5c0.3,0,0.5-0.3,0.5-0.6C28.3,29.9,28.1,29.7,27.8,29.7z"/>
		<path d="M24.7,28.3c-0.3,0-0.5,0.3-0.5,0.6c0,0.3,0.2,0.5,0.5,0.5c0.3,0,0.5-0.3,0.5-0.6C25.3,28.5,25,28.3,24.7,28.3z"/>
		<path d="M25.8,26.7c-0.3,0-0.5,0.3-0.5,0.6c0,0.3,0.2,0.5,0.5,0.5c0.3,0,0.5-0.3,0.5-0.6C26.3,26.9,26.1,26.7,25.8,26.7z"/>
		<path d="M23.7,30c-0.3,0-0.5,0.3-0.5,0.6c0,0.3,0.2,0.5,0.5,0.5c0.3,0,0.5-0.3,0.5-0.6C24.3,30.2,24,30,23.7,30z"/>
		<path d="M29.8,26.3c-0.3,0-0.5,0.3-0.5,0.6c0,0.3,0.2,0.5,0.5,0.5c0.3,0,0.5-0.3,0.5-0.6C30.4,26.5,30.1,26.3,29.8,26.3z"/>
		<path d="M31.9,26c-0.3,0-0.5,0.3-0.5,0.6c0,0.3,0.2,0.5,0.5,0.5c0.3,0,0.5-0.3,0.5-0.6S32.2,26,31.9,26z"/>
		<path d="M31.9,29.2c-0.3,0-0.5,0.3-0.5,0.6c0,0.3,0.2,0.5,0.5,0.5c0.3,0,0.5-0.3,0.5-0.6C32.4,29.4,32.2,29.2,31.9,29.2z"/>
		<path d="M32.9,27.4c-0.3,0-0.5,0.3-0.5,0.6c0,0.3,0.2,0.5,0.5,0.5c0.3,0,0.5-0.3,0.5-0.6C33.5,27.6,33.2,27.4,32.9,27.4z"/>
		<path d="M29.8,29.5c-0.3,0-0.5,0.3-0.5,0.6c0,0.3,0.2,0.5,0.5,0.5c0.3,0,0.5-0.3,0.5-0.6C30.4,29.6,30.1,29.4,29.8,29.5z"/>
		<path d="M33.9,25.7c-0.3,0-0.5,0.3-0.5,0.6c0,0.3,0.2,0.5,0.5,0.5c0.3,0,0.5-0.3,0.5-0.6C34.5,25.9,34.2,25.7,33.9,25.7z"/>
		<path d="M30.9,27.7c-0.3,0-0.5,0.3-0.5,0.6c0,0.3,0.2,0.5,0.5,0.5c0.3,0,0.5-0.3,0.5-0.6C31.4,27.9,31.2,27.7,30.9,27.7z"/>
		<path d="M73.8,25.2c0.3,0,0.5-0.2,0.5-0.5c0-0.3-0.2-0.5-0.5-0.5c-0.3,0-0.5,0.2-0.5,0.5C73.2,25,73.5,25.2,73.8,25.2z"/>
		<path d="M79.9,21.2c-0.3,0-0.5,0.2-0.5,0.5c0,0.3,0.2,0.6,0.5,0.6c0.3,0,0.5-0.2,0.5-0.5C80.4,21.5,80.2,21.3,79.9,21.2z"/>
		<path d="M77.9,25.3c0.3,0,0.5-0.2,0.5-0.5c0-0.3-0.2-0.6-0.5-0.6c-0.3,0-0.5,0.2-0.5,0.5C77.3,25.1,77.6,25.3,77.9,25.3z"/>
		<path d="M78.9,27c0.3,0,0.5-0.2,0.5-0.5c0-0.3-0.2-0.6-0.5-0.6c-0.3,0-0.5,0.2-0.5,0.5C78.3,26.8,78.6,27,78.9,27z"/>
		<path d="M79.9,25.5c0.3,0,0.5-0.2,0.5-0.5c0-0.3-0.2-0.6-0.5-0.6c-0.3,0-0.5,0.2-0.5,0.5C79.4,25.2,79.6,25.4,79.9,25.5z"/>
		<path d="M77.9,17.9c-0.3,0-0.5,0.2-0.5,0.5c0,0.3,0.2,0.6,0.5,0.6c0.3,0,0.5-0.2,0.5-0.5C78.4,18.2,78.2,17.9,77.9,17.9z"/>
		<path d="M76.8,16.3c-0.3,0-0.5,0.2-0.5,0.5c0,0.3,0.2,0.5,0.5,0.6c0.3,0,0.5-0.2,0.5-0.5C77.4,16.6,77.1,16.4,76.8,16.3z"/>
		<path d="M79.9,18.1c-0.3,0-0.5,0.2-0.5,0.5c0,0.3,0.2,0.6,0.5,0.6c0.3,0,0.5-0.2,0.5-0.5C80.4,18.4,80.2,18.1,79.9,18.1z"/>
		<path d="M78.9,16.5c-0.3,0-0.5,0.2-0.5,0.5c0,0.3,0.2,0.6,0.5,0.6c0.3,0,0.5-0.2,0.5-0.5C79.4,16.7,79.2,16.5,78.9,16.5z"/>
		<path d="M70.7,27c0.3,0,0.5-0.3,0.5-0.6c0-0.3-0.2-0.5-0.5-0.5c-0.3,0-0.5,0.3-0.5,0.6C70.2,26.8,70.4,27,70.7,27z"/>
		<path d="M72.7,26.9c0.3,0,0.5-0.3,0.5-0.6c0-0.3-0.2-0.5-0.5-0.5c-0.3,0-0.5,0.3-0.5,0.6C72.2,26.7,72.4,26.9,72.7,26.9z"/>
		<path d="M76.8,26.9c0.3,0,0.5-0.2,0.5-0.5c0-0.3-0.2-0.6-0.5-0.6c-0.3,0-0.5,0.2-0.5,0.5C76.3,26.7,76.5,26.9,76.8,26.9z"/>
		<path d="M71.7,25.3c0.3,0,0.5-0.3,0.5-0.6c0-0.3-0.2-0.5-0.5-0.5c-0.3,0-0.5,0.3-0.5,0.6C71.2,25.1,71.4,25.3,71.7,25.3z"/>
		<path d="M75.8,25.2c0.3,0,0.5-0.2,0.5-0.5c0-0.3-0.2-0.5-0.5-0.6c-0.3,0-0.5,0.2-0.5,0.5C75.3,25,75.5,25.2,75.8,25.2z"/>
		<path d="M74.8,26.9c0.3,0,0.5-0.2,0.5-0.5c0-0.3-0.2-0.5-0.5-0.5c-0.3,0-0.5,0.2-0.5,0.5C74.2,26.6,74.5,26.9,74.8,26.9z"/>
		<path d="M75.8,17.8c-0.3,0-0.5,0.2-0.5,0.5c0,0.3,0.2,0.5,0.5,0.5c0.3,0,0.5-0.2,0.5-0.5C76.3,18.1,76.1,17.8,75.8,17.8z"/>
		<path d="M66.6,16.7c-0.3,0-0.5,0.3-0.5,0.6c0,0.3,0.2,0.5,0.5,0.5c0.3,0,0.5-0.3,0.5-0.6C67.2,16.9,66.9,16.7,66.6,16.7z"/>
		<path d="M68.7,16.5c-0.3,0-0.5,0.3-0.5,0.6c0,0.3,0.2,0.5,0.5,0.5c0.3,0,0.5-0.3,0.5-0.6C69.2,16.7,69,16.5,68.7,16.5z"/>
		<path d="M65.6,18.4c-0.3,0-0.5,0.3-0.5,0.6c0,0.3,0.2,0.5,0.5,0.5c0.3,0,0.5-0.3,0.5-0.6C66.1,18.5,65.9,18.3,65.6,18.4z"/>
		<path d="M67.6,18.1c-0.3,0-0.5,0.3-0.5,0.6c0,0.3,0.2,0.5,0.5,0.5c0.3,0,0.5-0.3,0.5-0.6C68.2,18.3,67.9,18.1,67.6,18.1z"/>
		<path d="M64.6,17c-0.3,0-0.5,0.3-0.5,0.6c0,0.3,0.2,0.5,0.5,0.5c0.3,0,0.5-0.3,0.5-0.6C65.1,17.1,64.9,16.9,64.6,17z"/>
		<path d="M63.6,18.6c-0.3,0-0.5,0.3-0.5,0.6c0,0.3,0.2,0.5,0.5,0.5c0.3,0,0.5-0.3,0.5-0.6C64.1,18.8,63.9,18.6,63.6,18.6z"/>
		<path d="M71.7,17.9c-0.3,0-0.5,0.3-0.5,0.6c0,0.3,0.2,0.5,0.5,0.5c0.3,0,0.5-0.3,0.5-0.6C72.3,18.1,72,17.9,71.7,17.9z"/>
		<path d="M73.8,17.8c-0.3,0-0.5,0.2-0.5,0.5c0,0.3,0.2,0.5,0.5,0.5c0.3,0,0.5-0.2,0.5-0.5C74.3,18.1,74.1,17.8,73.8,17.8z"/>
		<path d="M72.7,16.3c-0.3,0-0.5,0.3-0.5,0.6c0,0.3,0.2,0.5,0.5,0.5c0.3,0,0.5-0.3,0.5-0.6C73.3,16.6,73,16.3,72.7,16.3z"/>
		<circle cx="74.8" cy="16.8" r="0.5"/>
		<path d="M70.7,16.4c-0.3,0-0.5,0.3-0.5,0.6c0,0.3,0.2,0.5,0.5,0.5c0.3,0,0.5-0.3,0.5-0.6C71.2,16.6,71,16.4,70.7,16.4z"/>
		<path d="M69.7,18c-0.3,0-0.5,0.3-0.5,0.6c0,0.3,0.2,0.5,0.5,0.5c0.3,0,0.5-0.3,0.5-0.6C70.2,18.2,70,18,69.7,18z"/>
		<path d="M62.5,17.2c-0.3,0-0.5,0.3-0.5,0.6c0,0.3,0.2,0.5,0.5,0.5c0.3,0,0.5-0.3,0.5-0.6C63.1,17.4,62.8,17.2,62.5,17.2z"/>
		<path d="M30.9,19.3c0.3,0,0.5-0.3,0.5-0.6c0-0.3-0.2-0.5-0.5-0.5c-0.3,0-0.5,0.3-0.5,0.6C30.3,19.1,30.6,19.3,30.9,19.3z"/>
		<path d="M15.5,18.4c0.3,0,0.5-0.2,0.5-0.5c0-0.3-0.2-0.6-0.5-0.6c-0.3,0-0.5,0.2-0.5,0.5C15,18.1,15.2,18.4,15.5,18.4z"/>
		<path d="M14.5,19.8c0.3,0,0.5-0.2,0.5-0.5c0-0.3-0.2-0.6-0.5-0.6c-0.3,0-0.5,0.2-0.5,0.5C14,19.5,14.2,19.8,14.5,19.8z"/>
		<path d="M16.6,20c0.3,0,0.5-0.2,0.5-0.5c0-0.3-0.2-0.6-0.5-0.6c-0.3,0-0.5,0.2-0.5,0.5C16,19.7,16.3,20,16.6,20z"/>
		<path d="M12.5,19.6c0.3,0,0.5-0.2,0.5-0.5c0-0.3-0.2-0.6-0.5-0.6c-0.3,0-0.5,0.2-0.5,0.5C11.9,19.3,12.2,19.6,12.5,19.6z"/>
		<path d="M19.6,42.8c-0.3,0-0.5,0.2-0.5,0.5c0,0.3,0.2,0.5,0.5,0.5c0.3,0,0.5-0.2,0.5-0.5C20.2,43,19.9,42.8,19.6,42.8z"/>
		<path d="M67.6,12.9c0.3,0,0.5-0.3,0.5-0.6c0-0.3-0.2-0.5-0.5-0.5c-0.3,0-0.5,0.3-0.5,0.6C67.1,12.7,67.3,12.9,67.6,12.9z"/>
		<path d="M11.5,21.1c0.3,0,0.5-0.2,0.5-0.5c0-0.3-0.2-0.6-0.5-0.6c-0.3,0-0.5,0.2-0.5,0.5C10.9,20.8,11.2,21.1,11.5,21.1z"/>
		<path d="M17.6,18.5c0.3,0,0.5-0.2,0.5-0.5c0-0.3-0.2-0.5-0.5-0.6c-0.3,0-0.5,0.2-0.5,0.5C17,18.2,17.3,18.5,17.6,18.5z"/>
		<path d="M21.7,18.5c0.3,0,0.5-0.3,0.5-0.6c0-0.3-0.2-0.5-0.5-0.5c-0.3,0-0.5,0.3-0.5,0.6C21.1,18.3,21.4,18.5,21.7,18.5z"/>
		<path d="M18.6,20.1c0.3,0,0.5-0.2,0.5-0.5c0-0.3-0.2-0.5-0.5-0.5c-0.3,0-0.5,0.2-0.5,0.5C18.1,19.8,18.3,20,18.6,20.1z"/>
		<path d="M23.7,18.4c0.3,0,0.5-0.3,0.5-0.6c0-0.3-0.2-0.5-0.5-0.5c-0.3,0-0.5,0.3-0.5,0.6C23.2,18.2,23.4,18.5,23.7,18.4z"/>
		<path d="M24.7,19.9c0.3,0,0.5-0.3,0.5-0.6c0-0.3-0.2-0.5-0.5-0.5c-0.3,0-0.5,0.3-0.5,0.6C24.2,19.7,24.4,19.9,24.7,19.9z"/>
		<circle cx="19.6" cy="18" r="0.5"/>
		<path d="M20.7,20.1c0.3,0,0.5-0.2,0.5-0.5c0-0.3-0.2-0.5-0.5-0.5c-0.3,0-0.5,0.2-0.5,0.5C20.1,19.8,20.4,20.1,20.7,20.1z"/>
		<path d="M22.7,20c0.3,0,0.5-0.3,0.5-0.6c0-0.3-0.2-0.5-0.5-0.5c-0.3,0-0.5,0.3-0.5,0.6C22.2,19.8,22.4,20,22.7,20z"/>
		<path d="M12.5,40.7c-0.3,0-0.5,0.2-0.5,0.5c0,0.3,0.2,0.6,0.5,0.6c0.3,0,0.5-0.2,0.5-0.5C13,41,12.8,40.7,12.5,40.7z"/>
		<path d="M13.5,42.4c-0.3,0-0.5,0.2-0.5,0.5c0,0.3,0.2,0.6,0.5,0.6c0.3,0,0.5-0.2,0.5-0.5C14,42.7,13.8,42.5,13.5,42.4z"/>
		<path d="M15.5,42.6c-0.3,0-0.5,0.2-0.5,0.5c0,0.3,0.2,0.6,0.5,0.6c0.3,0,0.5-0.2,0.5-0.5C16.1,42.9,15.8,42.6,15.5,42.6z"/>
		<path d="M11.5,24.3c0.3,0,0.5-0.2,0.5-0.5c0-0.3-0.2-0.6-0.5-0.6c-0.3,0-0.5,0.2-0.5,0.5C10.9,23.9,11.2,24.2,11.5,24.3z"/>
		<path d="M18.6,41.1c-0.3,0-0.5,0.2-0.5,0.5c0,0.3,0.2,0.5,0.5,0.6c0.3,0,0.5-0.2,0.5-0.5C19.2,41.4,18.9,41.1,18.6,41.1z"/>
		<path d="M17.6,42.7c-0.3,0-0.5,0.2-0.5,0.5c0,0.3,0.2,0.6,0.5,0.6c0.3,0,0.5-0.2,0.5-0.5C18.1,43,17.9,42.7,17.6,42.7z"/>
		<path d="M16.6,41.1c-0.3,0-0.5,0.2-0.5,0.5c0,0.3,0.2,0.6,0.5,0.6c0.3,0,0.5-0.2,0.5-0.5C17.1,41.3,16.9,41.1,16.6,41.1z"/>
		<path d="M14.5,40.9c-0.3,0-0.5,0.2-0.5,0.5c0,0.3,0.2,0.6,0.5,0.6c0.3,0,0.5-0.2,0.5-0.5C15.1,41.2,14.8,40.9,14.5,40.9z"/>
		<path d="M11.5,30.6c0.3,0,0.5-0.2,0.5-0.5c0-0.3-0.2-0.6-0.5-0.6c-0.3,0-0.5,0.2-0.5,0.5C10.9,30.3,11.2,30.6,11.5,30.6z"/>
		<path d="M11.5,27.4c0.3,0,0.5-0.2,0.5-0.5c0-0.3-0.2-0.6-0.5-0.6c-0.3,0-0.5,0.2-0.5,0.5C10.9,27.1,11.2,27.4,11.5,27.4z"/>
		<path d="M11.5,33.8c0.3,0,0.5-0.2,0.5-0.5c0-0.3-0.2-0.6-0.5-0.6c-0.3,0-0.5,0.2-0.5,0.5C10.9,33.4,11.2,33.7,11.5,33.8z"/>
		<path d="M11.5,40.1c0.3,0,0.5-0.2,0.5-0.5c0-0.3-0.2-0.6-0.5-0.6c-0.3,0-0.5,0.2-0.5,0.5C10.9,39.8,11.2,40,11.5,40.1z"/>
		<path d="M11.5,36.9c0.3,0,0.5-0.2,0.5-0.5c0-0.3-0.2-0.6-0.5-0.6c-0.3,0-0.5,0.2-0.5,0.5C10.9,36.6,11.2,36.9,11.5,36.9z"/>
		<path d="M11.5,42.2c-0.3,0-0.5,0.2-0.5,0.5c0,0.3,0.2,0.6,0.5,0.6c0.3,0,0.5-0.2,0.5-0.5C12,42.5,11.8,42.2,11.5,42.2z"/>
		<path d="M11.5,17.9c0.3,0,0.5-0.2,0.5-0.5c0-0.3-0.2-0.6-0.5-0.6c-0.3,0-0.5,0.2-0.5,0.5C10.9,17.6,11.2,17.9,11.5,17.9z"/>
		<path d="M57.4,14.3c0.3-0.1,0.5-0.3,0.5-0.6c0-0.3-0.2-0.5-0.5-0.4c-0.3,0.1-0.5,0.3-0.5,0.6C56.9,14.2,57.1,14.4,57.4,14.3z"/>
		<path d="M58.4,12.6c0.3-0.1,0.5-0.3,0.5-0.6c0-0.3-0.2-0.5-0.5-0.4c-0.3,0.1-0.5,0.3-0.5,0.6C57.9,12.5,58.1,12.7,58.4,12.6z"/>
		<path d="M59.5,14c0.3,0,0.5-0.3,0.5-0.6c0-0.3-0.2-0.5-0.5-0.5c-0.3,0-0.5,0.3-0.5,0.6C58.9,13.8,59.2,14,59.5,14z"/>
		<path d="M55.4,14.7c0.3-0.1,0.5-0.3,0.5-0.6c0-0.3-0.2-0.5-0.5-0.4c-0.3,0.1-0.5,0.3-0.5,0.6C54.8,14.5,55.1,14.7,55.4,14.7z"/>
		<path d="M54.4,13.4c0.3-0.1,0.5-0.3,0.5-0.6c0-0.3-0.2-0.5-0.5-0.4c-0.3,0.1-0.5,0.3-0.5,0.6C53.8,13.2,54.1,13.4,54.4,13.4z"/>
		<path d="M56.4,13c0.3-0.1,0.5-0.3,0.5-0.6c0-0.3-0.2-0.5-0.5-0.4c-0.3,0.1-0.5,0.3-0.5,0.6C55.9,12.8,56.1,13,56.4,13z"/>
		<path d="M60.5,12.3c0.3,0,0.5-0.3,0.5-0.6c0-0.3-0.2-0.5-0.5-0.5c-0.3,0-0.5,0.3-0.5,0.6C59.9,12.1,60.2,12.3,60.5,12.3z"/>
		<path d="M66.6,11.5c0.3,0,0.5-0.3,0.5-0.6c0-0.3-0.2-0.5-0.5-0.5c-0.3,0-0.5,0.3-0.5,0.6C66.1,11.3,66.3,11.5,66.6,11.5z"/>
		<path d="M65.6,13.1c0.3,0,0.5-0.3,0.5-0.6c0-0.3-0.2-0.5-0.5-0.5c-0.3,0-0.5,0.3-0.5,0.6C65.1,12.9,65.3,13.1,65.6,13.1z"/>
		<path d="M52.7,13.5c0.1-0.1,0.1-0.3,0.1-0.4c0-0.3-0.2-0.5-0.5-0.4c-0.2,0-0.4,0.3-0.5,0.5C52.1,13.3,52.4,13.4,52.7,13.5z"/>
		<path d="M64.6,11.7c0.3,0,0.5-0.3,0.5-0.6c0-0.3-0.2-0.5-0.5-0.5c-0.3,0-0.5,0.3-0.5,0.6C64,11.5,64.3,11.7,64.6,11.7z"/>
		<path d="M61.5,13.6c0.3,0,0.5-0.3,0.5-0.6c0-0.3-0.2-0.5-0.5-0.5c-0.3,0-0.5,0.3-0.5,0.6C61,13.5,61.2,13.7,61.5,13.6z"/>
		<path d="M62.5,12c0.3,0,0.5-0.3,0.5-0.6c0-0.3-0.2-0.5-0.5-0.5c-0.3,0-0.5,0.3-0.5,0.6C62,11.8,62.2,12,62.5,12z"/>
		<path d="M63.6,13.4c0.3,0,0.5-0.3,0.5-0.6c0-0.3-0.2-0.5-0.5-0.5c-0.3,0-0.5,0.3-0.5,0.6C63,13.2,63.3,13.4,63.6,13.4z"/>
		<path d="M32.9,19c0.3,0,0.5-0.3,0.5-0.6c0-0.3-0.2-0.5-0.5-0.5c-0.3,0-0.5,0.3-0.5,0.6C32.4,18.8,32.6,19,32.9,19z"/>
		<path d="M29.8,17.9c0.3,0,0.5-0.3,0.5-0.6c0-0.3-0.2-0.5-0.5-0.5c-0.3,0-0.5,0.3-0.5,0.6S29.5,17.9,29.8,17.9z"/>
		<path d="M31.9,17.6c0.3,0,0.5-0.3,0.5-0.6c0-0.3-0.2-0.5-0.5-0.5c-0.3,0-0.5,0.3-0.5,0.6C31.3,17.5,31.6,17.7,31.9,17.6z"/>
		<path d="M25.8,18.3c0.3,0,0.5-0.3,0.5-0.6c0-0.3-0.2-0.5-0.5-0.5c-0.3,0-0.5,0.3-0.5,0.6C25.2,18.1,25.5,18.3,25.8,18.3z"/>
		<path d="M42.6,15.1c-0.1-0.2-0.3-0.3-0.5-0.3c-0.3,0.1-0.5,0.3-0.5,0.6c0,0.1,0.1,0.3,0.1,0.3C42,15.5,42.3,15.3,42.6,15.1z"/>
		<path d="M33.9,17.3c0.3,0,0.5-0.3,0.5-0.6c0-0.3-0.2-0.5-0.5-0.5c-0.3,0-0.5,0.3-0.5,0.6C33.4,17.2,33.6,17.4,33.9,17.3z"/>
		<path d="M26.8,19.7c0.3,0,0.5-0.3,0.5-0.6c0-0.3-0.2-0.5-0.5-0.5c-0.3,0-0.5,0.3-0.5,0.6C26.2,19.6,26.5,19.8,26.8,19.7z"/>
		<path d="M27.8,18.1c0.3,0,0.5-0.3,0.5-0.6c0-0.3-0.2-0.5-0.5-0.5c-0.3,0-0.5,0.3-0.5,0.6C27.3,17.9,27.5,18.2,27.8,18.1z"/>
		<path d="M28.8,19.5c0.3,0,0.5-0.3,0.5-0.6c0-0.3-0.2-0.5-0.5-0.5c-0.3,0-0.5,0.3-0.5,0.6C28.3,19.4,28.5,19.6,28.8,19.5z"/>
		<path d="M39,18c0.3-0.1,0.5-0.3,0.5-0.6c0-0.3-0.2-0.5-0.5-0.4c-0.3,0.1-0.5,0.3-0.5,0.6C38.5,17.8,38.7,18,39,18z"/>
		<path d="M40.1,16.2c0.3-0.1,0.5-0.3,0.5-0.6c0-0.3-0.2-0.5-0.5-0.4c-0.3,0.1-0.5,0.3-0.5,0.6C39.5,16.1,39.8,16.3,40.1,16.2z"/>
		<path d="M38,16.6c0.3-0.1,0.5-0.3,0.5-0.6c0-0.3-0.2-0.5-0.5-0.4c-0.3,0.1-0.5,0.3-0.5,0.6C37.5,16.5,37.7,16.7,38,16.6z"/>
		<path d="M37,18.3c0.3-0.1,0.5-0.3,0.5-0.6c0-0.3-0.2-0.5-0.5-0.4c-0.3,0.1-0.5,0.3-0.5,0.6C36.5,18.2,36.7,18.4,37,18.3z"/>
		<path d="M36,17c0.3-0.1,0.5-0.3,0.5-0.6c0-0.3-0.2-0.5-0.5-0.4c-0.3,0.1-0.5,0.3-0.5,0.6C35.4,16.8,35.7,17,36,17z"/>
		<path d="M35,18.7c0.3,0,0.5-0.3,0.5-0.6c0-0.3-0.2-0.5-0.5-0.5c-0.3,0-0.5,0.3-0.5,0.6C34.4,18.5,34.7,18.7,35,18.7z"/>
		<path d="M13.5,18.2c0.3,0,0.5-0.2,0.5-0.5c0-0.3-0.2-0.6-0.5-0.6c-0.3,0-0.5,0.2-0.5,0.5C13,17.9,13.2,18.2,13.5,18.2z"/>
		<path d="M70.7,35.4c-0.3,0-0.5,0.3-0.5,0.6c0,0.3,0.2,0.5,0.5,0.5c0.3,0,0.5-0.3,0.5-0.6C71.2,35.6,71,35.4,70.7,35.4z"/>
		<path d="M69.7,33.8c-0.3,0-0.5,0.3-0.5,0.6c0,0.3,0.2,0.5,0.5,0.5c0.3,0,0.5-0.3,0.5-0.6C70.2,34,70,33.8,69.7,33.8z"/>
		<path d="M71.7,33.7c-0.3,0-0.5,0.3-0.5,0.6c0,0.3,0.2,0.5,0.5,0.5c0.3,0,0.5-0.3,0.5-0.6C72.3,33.9,72,33.7,71.7,33.7z"/>
		<path d="M61.5,34.7c-0.3,0-0.5,0.3-0.5,0.6c0,0.3,0.2,0.5,0.5,0.5c0.3,0,0.5-0.3,0.5-0.6C62.1,34.9,61.8,34.7,61.5,34.7z"/>
		<path d="M68.7,35.5c-0.3,0-0.5,0.3-0.5,0.6c0,0.3,0.2,0.5,0.5,0.5c0.3,0,0.5-0.3,0.5-0.6C69.2,35.7,69,35.5,68.7,35.5z"/>
		<path d="M75.8,33.7c-0.3,0-0.5,0.2-0.5,0.5c0,0.3,0.2,0.5,0.5,0.5c0.3,0,0.5-0.2,0.5-0.5C76.3,33.9,76.1,33.7,75.8,33.7z"/>
		<path d="M73.8,33.7c-0.3,0-0.5,0.2-0.5,0.5c0,0.3,0.2,0.5,0.5,0.5c0.3,0,0.5-0.2,0.5-0.5C74.3,33.9,74.1,33.7,73.8,33.7z"/>
		<circle cx="74.8" cy="35.8" r="0.5"/>
		<path d="M64.6,35.9c-0.3,0-0.5,0.3-0.5,0.6c0,0.3,0.2,0.5,0.5,0.5c0.3,0,0.5-0.3,0.5-0.6C65.1,36.1,64.9,35.9,64.6,35.9z"/>
		<path d="M63.6,34.4c-0.3,0-0.5,0.3-0.5,0.6c0,0.3,0.2,0.5,0.5,0.5c0.3,0,0.5-0.3,0.5-0.6C64.1,34.6,63.9,34.4,63.6,34.4z"/>
		<path d="M62.5,36.2c-0.3,0-0.5,0.3-0.5,0.6c0,0.3,0.2,0.5,0.5,0.5c0.3,0,0.5-0.3,0.5-0.6C63.1,36.4,62.8,36.2,62.5,36.2z"/>
		<path d="M67.6,34c-0.3,0-0.5,0.3-0.5,0.6c0,0.3,0.2,0.5,0.5,0.5c0.3,0,0.5-0.3,0.5-0.6C68.2,34.2,67.9,33.9,67.6,34z"/>
		<path d="M65.6,34.2c-0.3,0-0.5,0.3-0.5,0.6c0,0.3,0.2,0.5,0.5,0.5c0.3,0,0.5-0.3,0.5-0.6C66.1,34.4,65.9,34.1,65.6,34.2z"/>
		<path d="M66.6,35.7c-0.3,0-0.5,0.3-0.5,0.6c0,0.3,0.2,0.5,0.5,0.5c0.3,0,0.5-0.3,0.5-0.6C67.2,35.9,66.9,35.7,66.6,35.7z"/>
		<path d="M72.7,35.3c-0.3,0-0.5,0.3-0.5,0.6c0,0.3,0.2,0.5,0.5,0.5c0.3,0,0.5-0.3,0.5-0.6C73.3,35.5,73,35.3,72.7,35.3z"/>
		<path d="M83,26.4c-0.3,0-0.5,0.2-0.5,0.5c0,0.3,0.2,0.6,0.5,0.6c0.3,0,0.5-0.2,0.5-0.5C83.5,26.7,83.3,26.4,83,26.4z"/>
		<path d="M83,23.2c-0.3,0-0.5,0.2-0.5,0.5c0,0.3,0.2,0.6,0.5,0.6c0.3,0,0.5-0.2,0.5-0.5C83.5,23.6,83.3,23.3,83,23.2z"/>
		<path d="M83,29.6c-0.3,0-0.5,0.2-0.5,0.5c0,0.3,0.2,0.6,0.5,0.6c0.3,0,0.5-0.2,0.5-0.5C83.5,29.9,83.3,29.6,83,29.6z"/>
		<path d="M83,13.7c-0.3,0-0.5,0.2-0.5,0.5c0,0.3,0.2,0.6,0.5,0.6c0.3,0,0.5-0.2,0.5-0.5C83.5,14.1,83.3,13.8,83,13.7z"/>
		<path d="M83,32.7c-0.3,0-0.5,0.2-0.5,0.5c0,0.3,0.2,0.6,0.5,0.6c0.3,0,0.5-0.2,0.5-0.5C83.5,33,83.3,32.8,83,32.7z"/>
		<path d="M83,20.1c-0.3,0-0.5,0.2-0.5,0.5c0,0.3,0.2,0.6,0.5,0.6c0.3,0,0.5-0.2,0.5-0.5C83.5,20.4,83.3,20.1,83,20.1z"/>
		<path d="M83,16.9c-0.3,0-0.5,0.2-0.5,0.5c0,0.3,0.2,0.6,0.5,0.6c0.3,0,0.5-0.2,0.5-0.5C83.5,17.2,83.3,16.9,83,16.9z"/>
		<path d="M83,35.9c-0.3,0-0.5,0.2-0.5,0.5c0,0.3,0.2,0.6,0.5,0.6c0.3,0,0.5-0.2,0.5-0.5C83.5,36.2,83.3,35.9,83,35.9z"/>
		<path d="M78.9,35.4c-0.3,0-0.5,0.2-0.5,0.5c0,0.3,0.2,0.6,0.5,0.6c0.3,0,0.5-0.2,0.5-0.5C79.4,35.7,79.2,35.5,78.9,35.4z"/>
		<path d="M77.9,33.7c-0.3,0-0.5,0.2-0.5,0.5c0,0.3,0.2,0.6,0.5,0.6c0.3,0,0.5-0.2,0.5-0.5C78.4,34,78.2,33.8,77.9,33.7z"/>
		<path d="M79.9,33.9c-0.3,0-0.5,0.2-0.5,0.5c0,0.3,0.2,0.6,0.5,0.6c0.3,0,0.5-0.2,0.5-0.5C80.4,34.2,80.2,33.9,79.9,33.9z"/>
		<path d="M80.9,35.6c-0.3,0-0.5,0.2-0.5,0.5c0,0.3,0.2,0.6,0.5,0.6c0.3,0,0.5-0.2,0.5-0.5C81.5,35.9,81.2,35.7,80.9,35.6z"/>
		<path d="M76.8,35.3c-0.3,0-0.5,0.2-0.5,0.5c0,0.3,0.2,0.5,0.5,0.6c0.3,0,0.5-0.2,0.5-0.5C77.4,35.6,77.1,35.3,76.8,35.3z"/>
		<path d="M81.9,34.1c-0.3,0-0.5,0.2-0.5,0.5c0,0.3,0.2,0.6,0.5,0.6c0.3,0,0.5-0.2,0.5-0.5C82.5,34.4,82.2,34.1,81.9,34.1z"/>
		<path d="M37,39.4c-0.3,0.1-0.5,0.3-0.5,0.6c0,0.3,0.2,0.5,0.5,0.4c0.3-0.1,0.5-0.3,0.5-0.6C37.5,39.5,37.3,39.3,37,39.4z"/>
		<path d="M29.8,42.1c-0.3,0-0.5,0.3-0.5,0.6c0,0.3,0.2,0.5,0.5,0.5c0.3,0,0.5-0.3,0.5-0.6C30.4,42.3,30.1,42.1,29.8,42.1z"/>
		<path d="M35,39.8c-0.3,0-0.5,0.3-0.5,0.6c0,0.3,0.2,0.5,0.5,0.5c0.3,0,0.5-0.3,0.5-0.6C35.5,39.9,35.3,39.7,35,39.8z"/>
		<path d="M30.9,40.4c-0.3,0-0.5,0.3-0.5,0.6c0,0.3,0.2,0.5,0.5,0.5c0.3,0,0.5-0.3,0.5-0.6C31.4,40.5,31.2,40.3,30.9,40.4z"/>
		<path d="M32.9,40.1c-0.3,0-0.5,0.3-0.5,0.6c0,0.3,0.2,0.5,0.5,0.5c0.3,0,0.5-0.3,0.5-0.6C33.5,40.2,33.2,40,32.9,40.1z"/>
		<path d="M31.9,41.9c-0.3,0-0.5,0.3-0.5,0.6c0,0.3,0.2,0.5,0.5,0.5c0.3,0,0.5-0.3,0.5-0.6C32.4,42,32.2,41.8,31.9,41.9z"/>
		<path d="M33.9,41.6c-0.3,0-0.5,0.3-0.5,0.6c0,0.3,0.2,0.5,0.5,0.5c0.3,0,0.5-0.3,0.5-0.6C34.5,41.7,34.2,41.5,33.9,41.6z"/>
		<path d="M27.8,42.4c-0.3,0-0.5,0.3-0.5,0.6c0,0.3,0.2,0.5,0.5,0.5c0.3,0,0.5-0.3,0.5-0.6C28.3,42.5,28.1,42.3,27.8,42.4z"/>
		<path d="M28.8,40.6c-0.3,0-0.5,0.3-0.5,0.6c0,0.3,0.2,0.5,0.5,0.5c0.3,0,0.5-0.3,0.5-0.6C29.4,40.8,29.1,40.6,28.8,40.6z"/>
		<path d="M26.8,40.8c-0.3,0-0.5,0.3-0.5,0.6c0,0.3,0.2,0.5,0.5,0.5c0.3,0,0.5-0.3,0.5-0.6C27.3,41,27.1,40.8,26.8,40.8z"/>
		<path d="M21.7,42.8c-0.3,0-0.5,0.3-0.5,0.6c0,0.3,0.2,0.5,0.5,0.5c0.3,0,0.5-0.3,0.5-0.6C22.2,43,22,42.7,21.7,42.8z"/>
		<path d="M23.7,42.7c-0.3,0-0.5,0.3-0.5,0.6c0,0.3,0.2,0.5,0.5,0.5c0.3,0,0.5-0.3,0.5-0.6C24.3,42.9,24,42.7,23.7,42.7z"/>
		<path d="M22.7,41.1c-0.3,0-0.5,0.3-0.5,0.6c0,0.3,0.2,0.5,0.5,0.5c0.3,0,0.5-0.3,0.5-0.6C23.2,41.3,23,41.1,22.7,41.1z"/>
		<path d="M25.8,42.5c-0.3,0-0.5,0.3-0.5,0.6c0,0.3,0.2,0.5,0.5,0.5c0.3,0,0.5-0.3,0.5-0.6C26.3,42.7,26.1,42.5,25.8,42.5z"/>
		<path d="M24.7,41c-0.3,0-0.5,0.3-0.5,0.6c0,0.3,0.2,0.5,0.5,0.5c0.3,0,0.5-0.3,0.5-0.6C25.3,41.2,25,41,24.7,41z"/>
		<path d="M51.8,38.8c0.1,0.2,0.3,0.3,0.5,0.3c0.3-0.1,0.5-0.3,0.5-0.6c0-0.1-0.1-0.3-0.1-0.3C52.4,38.3,52.1,38.6,51.8,38.8z"/>
		<path d="M57.4,35.4c-0.3,0.1-0.5,0.3-0.5,0.6c0,0.3,0.2,0.5,0.5,0.4c0.3-0.1,0.5-0.3,0.5-0.6S57.7,35.3,57.4,35.4z"/>
		<path d="M56.4,37.2c-0.3,0.1-0.5,0.3-0.5,0.6c0,0.3,0.2,0.5,0.5,0.4c0.3-0.1,0.5-0.3,0.5-0.6C56.9,37.4,56.7,37.2,56.4,37.2z"/>
		<path d="M54.4,37.6c-0.3,0.1-0.5,0.3-0.5,0.6c0,0.3,0.2,0.5,0.5,0.4c0.3-0.1,0.5-0.3,0.5-0.6C54.9,37.7,54.7,37.5,54.4,37.6z"/>
		<path d="M55.4,35.8c-0.3,0.1-0.5,0.3-0.5,0.6c0,0.3,0.2,0.5,0.5,0.4c0.3-0.1,0.5-0.3,0.5-0.6C55.9,35.9,55.7,35.7,55.4,35.8z"/>
		<path d="M36,41.2c-0.3,0.1-0.5,0.3-0.5,0.6c0,0.3,0.2,0.5,0.5,0.4c0.3-0.1,0.5-0.3,0.5-0.6C36.5,41.4,36.3,41.2,36,41.2z"/>
		<path d="M59.5,35c-0.3,0-0.5,0.3-0.5,0.6c0,0.3,0.2,0.5,0.5,0.5c0.3,0,0.5-0.3,0.5-0.6C60,35.2,59.8,35,59.5,35z"/>
		<path d="M58.4,36.8c-0.3,0.1-0.5,0.3-0.5,0.6c0,0.3,0.2,0.5,0.5,0.4c0.3-0.1,0.5-0.3,0.5-0.6C59,37,58.7,36.8,58.4,36.8z"/>
		<path d="M38,40.9c-0.3,0.1-0.5,0.3-0.5,0.6c0,0.3,0.2,0.5,0.5,0.4c0.3-0.1,0.5-0.3,0.5-0.6C38.6,41,38.3,40.8,38,40.9z"/>
		<path d="M39,39c-0.3,0.1-0.5,0.3-0.5,0.6c0,0.3,0.2,0.5,0.5,0.4c0.3-0.1,0.5-0.3,0.5-0.6C39.6,39.2,39.3,39,39,39z"/>
		<path d="M20.7,41.1c-0.3,0-0.5,0.2-0.5,0.5c0,0.3,0.2,0.5,0.5,0.5c0.3,0,0.5-0.2,0.5-0.5C21.2,41.4,21,41.1,20.7,41.1z"/>
		<path d="M40.1,40.5c-0.3,0.1-0.5,0.3-0.5,0.6c0,0.3,0.2,0.5,0.5,0.4c0.3-0.1,0.5-0.3,0.5-0.6C40.6,40.6,40.4,40.4,40.1,40.5z"/>
		<path d="M41.7,40.3c-0.1,0.1-0.1,0.3-0.1,0.4c0,0.3,0.2,0.5,0.5,0.4c0.2,0,0.4-0.3,0.5-0.5C42.3,40.6,42,40.5,41.7,40.3z"/>
		<path d="M60.5,36.5c-0.3,0-0.5,0.3-0.5,0.6c0,0.3,0.2,0.5,0.5,0.5c0.3,0,0.5-0.3,0.5-0.6C61,36.7,60.8,36.5,60.5,36.5z"/>
		<path d="M31.9,39.8c0.3,0,0.5-0.3,0.5-0.6c0-0.3-0.2-0.5-0.5-0.5c-0.3,0-0.5,0.3-0.5,0.6C31.3,39.6,31.6,39.8,31.9,39.8z"/>
		<path d="M20.7,22.1c-0.3,0-0.5,0.2-0.5,0.5c0,0.3,0.2,0.5,0.5,0.5c0.3,0,0.5-0.2,0.5-0.5C21.2,22.4,21,22.1,20.7,22.1z"/>
		<path d="M18.6,22.1c-0.3,0-0.5,0.2-0.5,0.5c0,0.3,0.2,0.5,0.5,0.6c0.3,0,0.5-0.2,0.5-0.5C19.2,22.4,18.9,22.1,18.6,22.1z"/>
		<path d="M19.6,20.6c-0.3,0-0.5,0.2-0.5,0.5c0,0.3,0.2,0.5,0.5,0.5c0.3,0,0.5-0.2,0.5-0.5C20.2,20.9,19.9,20.6,19.6,20.6z"/>
		<path d="M17.6,20.6c-0.3,0-0.5,0.2-0.5,0.5c0,0.3,0.2,0.6,0.5,0.6c0.3,0,0.5-0.2,0.5-0.5C18.1,20.8,17.9,20.6,17.6,20.6z"/>
		<path d="M14.5,21.9c-0.3,0-0.5,0.2-0.5,0.5c0,0.3,0.2,0.6,0.5,0.6c0.3,0,0.5-0.2,0.5-0.5C15.1,22.2,14.8,21.9,14.5,21.9z"/>
		<path d="M15.5,20.5c-0.3,0-0.5,0.2-0.5,0.5c0,0.3,0.2,0.6,0.5,0.6c0.3,0,0.5-0.2,0.5-0.5C16.1,20.7,15.8,20.5,15.5,20.5z"/>
		<path d="M16.6,22.1c-0.3,0-0.5,0.2-0.5,0.5c0,0.3,0.2,0.6,0.5,0.6c0.3,0,0.5-0.2,0.5-0.5C17.1,22.3,16.9,22.1,16.6,22.1z"/>
		<path d="M25.8,20.4c-0.3,0-0.5,0.3-0.5,0.6c0,0.3,0.2,0.5,0.5,0.5c0.3,0,0.5-0.3,0.5-0.6C26.3,20.6,26.1,20.4,25.8,20.4z"/>
		<path d="M21.7,20.6c-0.3,0-0.5,0.3-0.5,0.6c0,0.3,0.2,0.5,0.5,0.5c0.3,0,0.5-0.3,0.5-0.6C22.2,20.8,22,20.6,21.7,20.6z"/>
		<path d="M26.8,21.8c-0.3,0-0.5,0.3-0.5,0.6c0,0.3,0.2,0.5,0.5,0.5c0.3,0,0.5-0.3,0.5-0.6C27.3,22,27.1,21.8,26.8,21.8z"/>
		<path d="M24.7,22c-0.3,0-0.5,0.3-0.5,0.6c0,0.3,0.2,0.5,0.5,0.5c0.3,0,0.5-0.3,0.5-0.6C25.3,22.2,25,22,24.7,22z"/>
		<path d="M13.5,20.3c-0.3,0-0.5,0.2-0.5,0.5c0,0.3,0.2,0.6,0.5,0.6c0.3,0,0.5-0.2,0.5-0.5C14,20.6,13.8,20.3,13.5,20.3z"/>
		<path d="M23.7,20.5c-0.3,0-0.5,0.3-0.5,0.6c0,0.3,0.2,0.5,0.5,0.5c0.3,0,0.5-0.3,0.5-0.6C24.3,20.7,24,20.5,23.7,20.5z"/>
		<path d="M22.7,22.1c-0.3,0-0.5,0.3-0.5,0.6c0,0.3,0.2,0.5,0.5,0.5c0.3,0,0.5-0.3,0.5-0.6C23.2,22.3,23,22.1,22.7,22.1z"/>
		<path d="M17.6,40.7c0.3,0,0.5-0.2,0.5-0.5c0-0.3-0.2-0.5-0.5-0.6c-0.3,0-0.5,0.2-0.5,0.5C17,40.4,17.3,40.6,17.6,40.7z"/>
		<path d="M27.8,20.2c-0.3,0-0.5,0.3-0.5,0.6c0,0.3,0.2,0.5,0.5,0.5c0.3,0,0.5-0.3,0.5-0.6C28.3,20.4,28.1,20.2,27.8,20.2z"/>
		<path d="M16.6,39c0.3,0,0.5-0.2,0.5-0.5c0-0.3-0.2-0.6-0.5-0.6c-0.3,0-0.5,0.2-0.5,0.5C16,38.7,16.3,38.9,16.6,39z"/>
		<path d="M15.5,40.5c0.3,0,0.5-0.2,0.5-0.5c0-0.3-0.2-0.6-0.5-0.6c-0.3,0-0.5,0.2-0.5,0.5C15,40.3,15.2,40.5,15.5,40.5z"/>
		<path d="M18.6,39c0.3,0,0.5-0.2,0.5-0.5c0-0.3-0.2-0.5-0.5-0.5c-0.3,0-0.5,0.2-0.5,0.5C18.1,38.8,18.3,39,18.6,39z"/>
		<path d="M14.5,38.8c0.3,0,0.5-0.2,0.5-0.5c0-0.3-0.2-0.6-0.5-0.6c-0.3,0-0.5,0.2-0.5,0.5C14,38.5,14.2,38.8,14.5,38.8z"/>
		<path d="M20.7,39.1c0.3,0,0.5-0.2,0.5-0.5c0-0.3-0.2-0.5-0.5-0.5c-0.3,0-0.5,0.2-0.5,0.5C20.1,38.8,20.4,39.1,20.7,39.1z"/>
		<circle cx="19.6" cy="40.2" r="0.5"/>
		<path d="M12.5,29.1c0.3,0,0.5-0.2,0.5-0.5c0-0.3-0.2-0.6-0.5-0.6c-0.3,0-0.5,0.2-0.5,0.5C11.9,28.8,12.2,29.1,12.5,29.1z"/>
		<path d="M13.5,40.4c0.3,0,0.5-0.2,0.5-0.5c0-0.3-0.2-0.6-0.5-0.6c-0.3,0-0.5,0.2-0.5,0.5C13,40.1,13.2,40.3,13.5,40.4z"/>
		<path d="M12.5,25.9c0.3,0,0.5-0.2,0.5-0.5c0-0.3-0.2-0.6-0.5-0.6c-0.3,0-0.5,0.2-0.5,0.5C11.9,25.6,12.2,25.9,12.5,25.9z"/>
		<path d="M12.5,32.3c0.3,0,0.5-0.2,0.5-0.5c0-0.3-0.2-0.6-0.5-0.6c-0.3,0-0.5,0.2-0.5,0.5C11.9,32,12.2,32.2,12.5,32.3z"/>
		<path d="M12.5,21.7c-0.3,0-0.5,0.2-0.5,0.5c0,0.3,0.2,0.6,0.5,0.6c0.3,0,0.5-0.2,0.5-0.5C13,22,12.8,21.7,12.5,21.7z"/>
		<path d="M12.5,35.4c0.3,0,0.5-0.2,0.5-0.5c0-0.3-0.2-0.6-0.5-0.6c-0.3,0-0.5,0.2-0.5,0.5C11.9,35.1,12.2,35.4,12.5,35.4z"/>
		<path d="M12.5,38.6c0.3,0,0.5-0.2,0.5-0.5c0-0.3-0.2-0.6-0.5-0.6c-0.3,0-0.5,0.2-0.5,0.5C11.9,38.3,12.2,38.6,12.5,38.6z"/>
		<path d="M72.7,13.2c-0.3,0-0.5,0.3-0.5,0.6c0,0.3,0.2,0.5,0.5,0.5c0.3,0,0.5-0.3,0.5-0.6C73.3,13.4,73,13.1,72.7,13.2z"/>
		<path d="M66.6,13.6c-0.3,0-0.5,0.3-0.5,0.6c0,0.3,0.2,0.5,0.5,0.5c0.3,0,0.5-0.3,0.5-0.6C67.2,13.7,66.9,13.5,66.6,13.6z"/>
		<path d="M67.6,15c-0.3,0-0.5,0.3-0.5,0.6c0,0.3,0.2,0.5,0.5,0.5c0.3,0,0.5-0.3,0.5-0.6C68.2,15.2,67.9,15,67.6,15z"/>
		<path d="M68.7,13.4c-0.3,0-0.5,0.3-0.5,0.6c0,0.3,0.2,0.5,0.5,0.5c0.3,0,0.5-0.3,0.5-0.6C69.2,13.6,69,13.3,68.7,13.4z"/>
		<path d="M69.7,14.8c-0.3,0-0.5,0.3-0.5,0.6c0,0.3,0.2,0.5,0.5,0.5c0.3,0,0.5-0.3,0.5-0.6C70.2,15,70,14.8,69.7,14.8z"/>
		<path d="M63.6,15.4c-0.3,0-0.5,0.3-0.5,0.6c0,0.3,0.2,0.5,0.5,0.5c0.3,0,0.5-0.3,0.5-0.6C64.1,15.6,63.9,15.4,63.6,15.4z"/>
		<path d="M62.5,14.1c-0.3,0-0.5,0.3-0.5,0.6c0,0.3,0.2,0.5,0.5,0.5c0.3,0,0.5-0.3,0.5-0.6C63.1,14.2,62.8,14,62.5,14.1z"/>
		<path d="M65.6,15.2c-0.3,0-0.5,0.3-0.5,0.6c0,0.3,0.2,0.5,0.5,0.5c0.3,0,0.5-0.3,0.5-0.6C66.1,15.4,65.9,15.2,65.6,15.2z"/>
		<path d="M64.6,13.8c-0.3,0-0.5,0.3-0.5,0.6c0,0.3,0.2,0.5,0.5,0.5c0.3,0,0.5-0.3,0.5-0.6C65.1,14,64.9,13.7,64.6,13.8z"/>
		<path d="M73.8,14.7c-0.3,0-0.5,0.2-0.5,0.5c0,0.3,0.2,0.5,0.5,0.5c0.3,0,0.5-0.2,0.5-0.5C74.3,14.9,74.1,14.7,73.8,14.7z"/>
		<path d="M70.7,13.2c-0.3,0-0.5,0.3-0.5,0.6c0,0.3,0.2,0.5,0.5,0.5c0.3,0,0.5-0.3,0.5-0.6C71.2,13.5,71,13.2,70.7,13.2z"/>
		<path d="M75.8,14.7c-0.3,0-0.5,0.2-0.5,0.5c0,0.3,0.2,0.5,0.5,0.5c0.3,0,0.5-0.2,0.5-0.5C76.3,14.9,76.1,14.7,75.8,14.7z"/>
		<circle cx="74.8" cy="13.7" r="0.5"/>
		<path d="M71.7,14.7c-0.3,0-0.5,0.3-0.5,0.6c0,0.3,0.2,0.5,0.5,0.5c0.3,0,0.5-0.3,0.5-0.6C72.3,14.9,72,14.7,71.7,14.7z"/>
		<path d="M21.7,40.7c0.3,0,0.5-0.3,0.5-0.6c0-0.3-0.2-0.5-0.5-0.5c-0.3,0-0.5,0.3-0.5,0.6C21.1,40.4,21.4,40.7,21.7,40.7z"/>
		<path d="M68.7,11.3c0.3,0,0.5-0.3,0.5-0.6c0-0.3-0.2-0.5-0.5-0.5c-0.3,0-0.5,0.3-0.5,0.6C68.1,11.1,68.4,11.3,68.7,11.3z"/>
		<path d="M33.9,19.4c-0.3,0-0.5,0.3-0.5,0.6c0,0.3,0.2,0.5,0.5,0.5c0.3,0,0.5-0.3,0.5-0.6C34.5,19.6,34.2,19.4,33.9,19.4z"/>
		<path d="M32.9,21.1c-0.3,0-0.5,0.3-0.5,0.6c0,0.3,0.2,0.5,0.5,0.5c0.3,0,0.5-0.3,0.5-0.6C33.5,21.2,33.2,21,32.9,21.1z"/>
		<path d="M35,20.8c-0.3,0-0.5,0.3-0.5,0.6c0,0.3,0.2,0.5,0.5,0.5c0.3,0,0.5-0.3,0.5-0.6C35.5,20.9,35.3,20.7,35,20.8z"/>
		<path d="M30.9,21.4c-0.3,0-0.5,0.3-0.5,0.6c0,0.3,0.2,0.5,0.5,0.5c0.3,0,0.5-0.3,0.5-0.6C31.4,21.5,31.2,21.3,30.9,21.4z"/>
		<path d="M29.8,20c-0.3,0-0.5,0.3-0.5,0.6c0,0.3,0.2,0.5,0.5,0.5c0.3,0,0.5-0.3,0.5-0.6C30.4,20.1,30.1,19.9,29.8,20z"/>
		<path d="M36,19.1c-0.3,0.1-0.5,0.3-0.5,0.6c0,0.3,0.2,0.5,0.5,0.4c0.3-0.1,0.5-0.3,0.5-0.6C36.5,19.2,36.3,19,36,19.1z"/>
		<path d="M31.9,19.7c-0.3,0-0.5,0.3-0.5,0.6c0,0.3,0.2,0.5,0.5,0.5c0.3,0,0.5-0.3,0.5-0.6C32.4,19.9,32.2,19.7,31.9,19.7z"/>
		<path d="M61.5,15.7c-0.3,0-0.5,0.3-0.5,0.6c0,0.3,0.2,0.5,0.5,0.5c0.3,0,0.5-0.3,0.5-0.6C62.1,15.9,61.8,15.7,61.5,15.7z"/>
		<path d="M59.5,16.1c-0.3,0-0.5,0.3-0.5,0.6c0,0.3,0.2,0.5,0.5,0.5c0.3,0,0.5-0.3,0.5-0.6C60,16.2,59.8,16,59.5,16.1z"/>
		<path d="M28.8,21.6c-0.3,0-0.5,0.3-0.5,0.6c0,0.3,0.2,0.5,0.5,0.5c0.3,0,0.5-0.3,0.5-0.6C29.4,21.8,29.1,21.6,28.8,21.6z"/>
		<path d="M58.4,14.7c-0.3,0.1-0.5,0.3-0.5,0.6c0,0.3,0.2,0.5,0.5,0.4c0.3-0.1,0.5-0.3,0.5-0.6C59,14.8,58.7,14.6,58.4,14.7z"/>
		<path d="M57.4,16.4c-0.3,0-0.5,0.3-0.5,0.6c0.1,0.2,0.2,0.3,0.3,0.5c0.1,0,0.1,0,0.2,0c0.3-0.1,0.5-0.3,0.5-0.6
			C58,16.5,57.7,16.3,57.4,16.4z"/>
		<path d="M37,20.4c-0.3,0.1-0.5,0.3-0.5,0.6c0,0.3,0.2,0.5,0.5,0.4c0.1,0,0.1,0,0.2-0.1c0.1-0.2,0.2-0.4,0.3-0.6
			C37.5,20.5,37.3,20.4,37,20.4z"/>
		<path d="M38,18.7c-0.3,0.1-0.5,0.3-0.5,0.6c0,0.3,0.2,0.5,0.5,0.4c0,0,0.1,0,0.1-0.1c0.1-0.2,0.3-0.4,0.4-0.6
			C38.6,18.8,38.3,18.6,38,18.7z"/>
		<path d="M60.5,14.4c-0.3,0-0.5,0.3-0.5,0.6c0,0.3,0.2,0.5,0.5,0.5c0.3,0,0.5-0.3,0.5-0.6C61,14.5,60.8,14.3,60.5,14.4z"/>
		<path d="M80.9,33.5c0.3,0,0.5-0.2,0.5-0.5c0-0.3-0.2-0.6-0.5-0.6c-0.3,0-0.5,0.2-0.5,0.5C80.4,33.2,80.6,33.5,80.9,33.5z"/>
		<path d="M79.9,31.8c0.3,0,0.5-0.2,0.5-0.5c0-0.3-0.2-0.6-0.5-0.6c-0.3,0-0.5,0.2-0.5,0.5C79.4,31.5,79.6,31.8,79.9,31.8z"/>
		<path d="M78.9,33.4c0.3,0,0.5-0.2,0.5-0.5c0-0.3-0.2-0.6-0.5-0.6c-0.3,0-0.5,0.2-0.5,0.5C78.3,33.1,78.6,33.3,78.9,33.4z"/>
		<path d="M81.9,27.8c-0.3,0-0.5,0.2-0.5,0.5c0,0.3,0.2,0.6,0.5,0.6c0.3,0,0.5-0.2,0.5-0.5C82.5,28.1,82.2,27.8,81.9,27.8z"/>
		<path d="M81.9,24.6c-0.3,0-0.5,0.2-0.5,0.5c0,0.3,0.2,0.6,0.5,0.6c0.3,0,0.5-0.2,0.5-0.5C82.5,24.9,82.2,24.7,81.9,24.6z"/>
		<path d="M77.9,31.7c0.3,0,0.5-0.2,0.5-0.5c0-0.3-0.2-0.6-0.5-0.6c-0.3,0-0.5,0.2-0.5,0.5C77.3,31.4,77.6,31.6,77.9,31.7z"/>
		<path d="M81.9,32c0.3,0,0.5-0.2,0.5-0.5c0-0.3-0.2-0.6-0.5-0.6c-0.3,0-0.5,0.2-0.5,0.5C81.4,31.7,81.6,32,81.9,32z"/>
		<path d="M76.8,33.2c0.3,0,0.5-0.2,0.5-0.5c0-0.3-0.2-0.6-0.5-0.6c-0.3,0-0.5,0.2-0.5,0.5C76.3,33,76.5,33.2,76.8,33.2z"/>
		<path d="M81.9,21.5c-0.3,0-0.5,0.2-0.5,0.5c0,0.3,0.2,0.6,0.5,0.6c0.3,0,0.5-0.2,0.5-0.5C82.5,21.8,82.2,21.5,81.9,21.5z"/>
		<path d="M72.7,33.2c0.3,0,0.5-0.3,0.5-0.6c0-0.3-0.2-0.5-0.5-0.5c-0.3,0-0.5,0.3-0.5,0.6C72.2,33,72.4,33.2,72.7,33.2z"/>
		<path d="M71.7,31.6c0.3,0,0.5-0.3,0.5-0.6c0-0.3-0.2-0.5-0.5-0.5c-0.3,0-0.5,0.3-0.5,0.6C71.2,31.4,71.4,31.6,71.7,31.6z"/>
		<path d="M73.8,31.6c0.3,0,0.5-0.2,0.5-0.5c0-0.3-0.2-0.5-0.5-0.5c-0.3,0-0.5,0.2-0.5,0.5C73.2,31.3,73.5,31.6,73.8,31.6z"/>
		<path d="M74.8,33.2c0.3,0,0.5-0.2,0.5-0.5c0-0.3-0.2-0.5-0.5-0.5c-0.3,0-0.5,0.2-0.5,0.5C74.2,33,74.5,33.2,74.8,33.2z"/>
		<path d="M75.8,31.6c0.3,0,0.5-0.2,0.5-0.5c0-0.3-0.2-0.5-0.5-0.6c-0.3,0-0.5,0.2-0.5,0.5C75.3,31.3,75.5,31.6,75.8,31.6z"/>
		<path d="M71.7,12.6c0.3,0,0.5-0.3,0.5-0.6c0-0.3-0.2-0.5-0.5-0.5c-0.3,0-0.5,0.3-0.5,0.6C71.2,12.4,71.4,12.6,71.7,12.6z"/>
		<path d="M72.7,11.1c0.3,0,0.5-0.3,0.5-0.6c0-0.3-0.2-0.5-0.5-0.5c-0.3,0-0.5,0.3-0.5,0.6C72.2,10.8,72.4,11.1,72.7,11.1z"/>
		<path d="M75.8,12.6c0.3,0,0.5-0.2,0.5-0.5c0-0.3-0.2-0.5-0.5-0.6c-0.3,0-0.5,0.2-0.5,0.5C75.3,12.3,75.5,12.6,75.8,12.6z"/>
		<path d="M74.8,11.1c0.3,0,0.5-0.2,0.5-0.5c0-0.3-0.2-0.5-0.5-0.5c-0.3,0-0.5,0.2-0.5,0.5C74.2,10.8,74.5,11,74.8,11.1z"/>
		<path d="M73.8,12.6c0.3,0,0.5-0.2,0.5-0.5c0-0.3-0.2-0.5-0.5-0.5c-0.3,0-0.5,0.2-0.5,0.5C73.2,12.3,73.5,12.6,73.8,12.6z"/>
		<path d="M69.7,12.7c0.3,0,0.5-0.3,0.5-0.6c0-0.3-0.2-0.5-0.5-0.5c-0.3,0-0.5,0.3-0.5,0.6C69.1,12.5,69.4,12.8,69.7,12.7z"/>
		<path d="M70.7,11.2c0.3,0,0.5-0.3,0.5-0.6c0-0.3-0.2-0.5-0.5-0.5c-0.3,0-0.5,0.3-0.5,0.6C70.2,10.9,70.4,11.2,70.7,11.2z"/>
		<path d="M70.7,33.3c0.3,0,0.5-0.3,0.5-0.6c0-0.3-0.2-0.5-0.5-0.5c-0.3,0-0.5,0.3-0.5,0.6C70.2,33.1,70.4,33.3,70.7,33.3z"/>
		<path d="M78.9,11.2c0.3,0,0.5-0.2,0.5-0.5c0-0.3-0.2-0.6-0.5-0.6c-0.3,0-0.5,0.2-0.5,0.5C78.3,10.9,78.6,11.2,78.9,11.2z"/>
		<path d="M80.9,11.4c0.3,0,0.5-0.2,0.5-0.5c0-0.3-0.2-0.6-0.5-0.6c-0.3,0-0.5,0.2-0.5,0.5C80.4,11.1,80.6,11.4,80.9,11.4z"/>
		<path d="M79.9,12.8c0.3,0,0.5-0.2,0.5-0.5c0-0.3-0.2-0.6-0.5-0.6c-0.3,0-0.5,0.2-0.5,0.5C79.4,12.5,79.6,12.8,79.9,12.8z"/>
		<path d="M76.8,11.1c0.3,0,0.5-0.2,0.5-0.5c0-0.3-0.2-0.6-0.5-0.6c-0.3,0-0.5,0.2-0.5,0.5C76.3,10.8,76.5,11.1,76.8,11.1z"/>
		<path d="M81.9,15.1c-0.3,0-0.5,0.2-0.5,0.5c0,0.3,0.2,0.6,0.5,0.6c0.3,0,0.5-0.2,0.5-0.5C82.5,15.4,82.2,15.2,81.9,15.1z"/>
		<path d="M77.9,12.7c0.3,0,0.5-0.2,0.5-0.5c0-0.3-0.2-0.6-0.5-0.6c-0.3,0-0.5,0.2-0.5,0.5C77.3,12.4,77.6,12.7,77.9,12.7z"/>
		<path d="M81.9,18.3c-0.3,0-0.5,0.2-0.5,0.5c0,0.3,0.2,0.6,0.5,0.6c0.3,0,0.5-0.2,0.5-0.5C82.5,18.6,82.2,18.3,81.9,18.3z"/>
		<path d="M22.7,39c0.3,0,0.5-0.3,0.5-0.6c0-0.3-0.2-0.5-0.5-0.5c-0.3,0-0.5,0.3-0.5,0.6C22.2,38.8,22.4,39,22.7,39z"/>
		<path d="M32.9,38c0.3,0,0.5-0.3,0.5-0.6c0-0.3-0.2-0.5-0.5-0.5c-0.3,0-0.5,0.3-0.5,0.6C32.4,37.8,32.6,38,32.9,38z"/>
		<path d="M76.8,13.2c-0.3,0-0.5,0.2-0.5,0.5c0,0.3,0.2,0.5,0.5,0.6c0.3,0,0.5-0.2,0.5-0.5C77.4,13.4,77.1,13.2,76.8,13.2z"/>
		<path d="M30.9,38.3c0.3,0,0.5-0.3,0.5-0.6c0-0.3-0.2-0.5-0.5-0.5c-0.3,0-0.5,0.3-0.5,0.6C30.3,38.1,30.6,38.3,30.9,38.3z"/>
		<path d="M29.8,40c0.3,0,0.5-0.3,0.5-0.6c0-0.3-0.2-0.5-0.5-0.5c-0.3,0-0.5,0.3-0.5,0.6C29.3,39.9,29.5,40.1,29.8,40z"/>
		<path d="M69.7,31.7c0.3,0,0.5-0.3,0.5-0.6c0-0.3-0.2-0.5-0.5-0.5c-0.3,0-0.5,0.3-0.5,0.6C69.1,31.5,69.4,31.7,69.7,31.7z"/>
		<path d="M36,39.1c0.3-0.1,0.5-0.3,0.5-0.6c0-0.3-0.2-0.5-0.5-0.4c-0.3,0.1-0.5,0.3-0.5,0.6C35.4,39,35.7,39.2,36,39.1z"/>
		<path d="M35,37.7c0.3,0,0.5-0.3,0.5-0.6c0-0.3-0.2-0.5-0.5-0.5c-0.3,0-0.5,0.3-0.5,0.6C34.4,37.5,34.7,37.7,35,37.7z"/>
		<path d="M23.7,40.6c0.3,0,0.5-0.3,0.5-0.6c0-0.3-0.2-0.5-0.5-0.5c-0.3,0-0.5,0.3-0.5,0.6C23.2,40.4,23.4,40.6,23.7,40.6z"/>
		<path d="M28.8,38.5c0.3,0,0.5-0.3,0.5-0.6c0-0.3-0.2-0.5-0.5-0.5c-0.3,0-0.5,0.3-0.5,0.6C28.3,38.3,28.5,38.6,28.8,38.5z"/>
		<path d="M25.8,40.5c0.3,0,0.5-0.3,0.5-0.6c0-0.3-0.2-0.5-0.5-0.5c-0.3,0-0.5,0.3-0.5,0.6C25.2,40.3,25.5,40.5,25.8,40.5z"/>
		<path d="M37,37.3c0.2,0,0.4-0.2,0.5-0.5c-0.1-0.2-0.3-0.4-0.4-0.6c0,0-0.1,0-0.1,0c-0.3,0.1-0.5,0.3-0.5,0.6
			C36.5,37.2,36.7,37.4,37,37.3z"/>
		<path d="M24.7,38.9c0.3,0,0.5-0.3,0.5-0.6c0-0.3-0.2-0.5-0.5-0.5c-0.3,0-0.5,0.3-0.5,0.6C24.2,38.7,24.4,38.9,24.7,38.9z"/>
		<path d="M26.8,38.7c0.3,0,0.5-0.3,0.5-0.6c0-0.3-0.2-0.5-0.5-0.5c-0.3,0-0.5,0.3-0.5,0.6C26.2,38.5,26.5,38.8,26.8,38.7z"/>
		<path d="M27.8,40.3c0.3,0,0.5-0.3,0.5-0.6c0-0.3-0.2-0.5-0.5-0.5c-0.3,0-0.5,0.3-0.5,0.6C27.3,40.1,27.5,40.3,27.8,40.3z"/>
		<path d="M33.9,39.5c0.3,0,0.5-0.3,0.5-0.6c0-0.3-0.2-0.5-0.5-0.5c-0.3,0-0.5,0.3-0.5,0.6C33.4,39.3,33.6,39.5,33.9,39.5z"/>
		<path d="M63.6,32.3c0.3,0,0.5-0.3,0.5-0.6c0-0.3-0.2-0.5-0.5-0.5c-0.3,0-0.5,0.3-0.5,0.6C63,32.2,63.3,32.4,63.6,32.3z"/>
		<path d="M56.4,35.1c0.3-0.1,0.5-0.3,0.5-0.6c0-0.3-0.2-0.5-0.5-0.4c0,0-0.1,0-0.1,0.1c-0.1,0.2-0.3,0.4-0.4,0.6
			C55.9,35,56.1,35.2,56.4,35.1z"/>
		<path d="M64.6,33.9c0.3,0,0.5-0.3,0.5-0.6c0-0.3-0.2-0.5-0.5-0.5c-0.3,0-0.5,0.3-0.5,0.6C64,33.7,64.3,33.9,64.6,33.9z"/>
		<path d="M66.6,33.6c0.3,0,0.5-0.3,0.5-0.6c0-0.3-0.2-0.5-0.5-0.5c-0.3,0-0.5,0.3-0.5,0.6C66.1,33.4,66.3,33.7,66.6,33.6z"/>
		<path d="M68.7,33.4c0.3,0,0.5-0.3,0.5-0.6c0-0.3-0.2-0.5-0.5-0.5c-0.3,0-0.5,0.3-0.5,0.6C68.1,33.2,68.4,33.5,68.7,33.4z"/>
		<path d="M67.6,31.9c0.3,0,0.5-0.3,0.5-0.6c0-0.3-0.2-0.5-0.5-0.5c-0.3,0-0.5,0.3-0.5,0.6C67.1,31.7,67.3,31.9,67.6,31.9z"/>
		<path d="M65.6,32.1c0.3,0,0.5-0.3,0.5-0.6c0-0.3-0.2-0.5-0.5-0.5c-0.3,0-0.5,0.3-0.5,0.6C65.1,31.9,65.3,32.1,65.6,32.1z"/>
		<path d="M58.4,34.8c0.3-0.1,0.5-0.3,0.5-0.6c0-0.3-0.2-0.5-0.5-0.4c-0.3,0.1-0.5,0.3-0.5,0.6C57.9,34.6,58.1,34.8,58.4,34.8z"/>
		<path d="M57.4,33.3c0.3-0.1,0.5-0.3,0.5-0.6c0-0.3-0.2-0.5-0.5-0.4c-0.1,0-0.1,0-0.1,0.1c-0.1,0.2-0.2,0.5-0.4,0.7
			C57,33.2,57.2,33.3,57.4,33.3z"/>
		<path d="M62.5,34.1c0.3,0,0.5-0.3,0.5-0.6c0-0.3-0.2-0.5-0.5-0.5c-0.3,0-0.5,0.3-0.5,0.6C62,34,62.2,34.2,62.5,34.1z"/>
		<path d="M59.5,33c0.3,0,0.5-0.3,0.5-0.6s-0.2-0.5-0.5-0.5c-0.3,0-0.5,0.3-0.5,0.6C58.9,32.8,59.2,33,59.5,33z"/>
		<path d="M60.5,34.4c0.3,0,0.5-0.3,0.5-0.6c0-0.3-0.2-0.5-0.5-0.5c-0.3,0-0.5,0.3-0.5,0.6C59.9,34.3,60.2,34.5,60.5,34.4z"/>
		<path d="M61.5,32.6c0.3,0,0.5-0.3,0.5-0.6c0-0.3-0.2-0.5-0.5-0.5c-0.3,0-0.5,0.3-0.5,0.6C61,32.5,61.2,32.7,61.5,32.6z"/>
	</g>
	<path d="M19.9,53.8c-6.6,0-12.6-1-18.3-2.9c-1-0.3-1.7-1.3-1.7-2.4V7.2c0-0.8,0.4-1.6,1.1-2s1.5-0.6,2.3-0.3
		C8.5,6.6,13.9,7.5,20,7.5c8.8,0,17.9-1.9,26.8-3.7C55.8,1.9,65.1,0,74.5,0c6.6,0,12.6,1,18.3,2.9c1,0.3,1.7,1.3,1.7,2.4v41.3
		c0,0.8-0.4,1.6-1.1,2s-1.5,0.6-2.3,0.3c-5.1-1.8-10.6-2.7-16.6-2.7c-8.8,0-17.9,1.9-26.8,3.7C38.7,51.9,29.3,53.8,19.9,53.8
		C20,53.8,20,53.8,19.9,53.8z M5,46.7c4.6,1.4,9.5,2.1,14.9,2.1c0,0,0,0,0,0c8.8,0,17.9-1.9,26.8-3.7c9.1-1.9,18.4-3.8,27.8-3.8
		c5.3,0,10.3,0.6,15,1.9V7.1C84.8,5.7,79.9,5,74.5,5c-8.8,0-17.9,1.9-26.8,3.7c-9.1,1.9-18.4,3.8-27.8,3.8c-5.4,0-10.3-0.6-15-1.9
		V46.7z"/>
	<g>
		<path d="M47.9,28.7c0,1.2,0,2.4,0,3.6c0.8-0.4,1.3-1,1.3-1.8C49.2,29.7,48.8,29.1,47.9,28.7z"/>
		<path d="M45,22.5c0,0.7,0.4,1.3,1.4,1.7c0-1.1,0-2.2,0-3.2C45.6,21.1,45,21.8,45,22.5z"/>
		<path d="M47.2,13c-6.6,1.4-11.9,8.5-11.9,16.2c0,7.7,5.3,13,11.9,11.6c6.6-1.4,11.9-8.5,11.9-16.2C59.1,16.9,53.8,11.6,47.2,13z
			 M47.8,35.4c0,0.9,0,1.7,0,2.6c0,0.2-0.2,0.5-0.5,0.5c-0.1,0-0.3,0.1-0.4,0.1c-0.2,0.1-0.5-0.1-0.5-0.4c0-0.9,0-1.7,0-2.6
			c-2.7,0.4-4.3-0.5-4.8-0.9c-0.3-0.2-0.3-0.3-0.1-0.7c0.4-0.7,0.7-1.4,1.1-2.1c0.2-0.4,0.6-0.7,0.9-0.5c0.1,0,1.6,0.7,2.9,0.9
			c0-1.3,0-2.7,0-4c-2.2-0.4-5.1-1.6-5.1-4.6c0-2.5,1.8-5,5.1-6c0-0.3,0-0.5,0-0.8c0-0.3,0.2-0.5,0.5-0.6c0.1,0,0.3-0.1,0.4-0.1
			c0.3-0.1,0.5,0.1,0.5,0.4c0,0.3,0,0.5,0,0.8c2.2-0.3,4,0.5,4.6,0.9c0.3,0.1,0.3,0.6,0.1,0.8c-0.5,0.8-1,1.6-1.4,2.4
			c-0.2,0.3-0.5,0.4-0.7,0.3c-0.2,0-1.5-0.7-2.7-0.9c0,1.2,0,2.3,0,3.5c1.9,0.4,5.3,1.4,5.3,4.8C53.2,31.8,51.1,34.4,47.8,35.4z"/>
	</g>
</g>
</svg>
