<?xml version="1.0" encoding="utf-8"?>
<!-- Generator: Adobe Illustrator 18.0.0, SVG Export Plug-In . SVG Version: 6.00 Build 0)  -->
<!DOCTYPE svg PUBLIC "-//W3C//DTD SVG 1.1//EN" "http://www.w3.org/Graphics/SVG/1.1/DTD/svg11.dtd">
<svg version="1.1" id="Layer_1" xmlns="http://www.w3.org/2000/svg" xmlns:xlink="http://www.w3.org/1999/xlink" x="0px" y="0px"
	 viewBox="0 0 40.9 40.9" enable-background="new 0 0 40.9 40.9" xml:space="preserve">
<g>
	<g>
		<g>
			<path fill="#654637" d="M20.4,0C9.2,0,0,9.2,0,20.4c0,11.3,9.2,20.4,20.4,20.4c11.3,0,20.4-9.2,20.4-20.4C40.9,9.2,31.7,0,20.4,0
				z M31,27.9c0,1-0.8,1.8-1.8,1.8H11.7c-1,0-1.8-0.8-1.8-1.8v-9h5.5c-0.4,0.8-0.7,1.8-0.7,2.7c0,3.2,2.6,5.8,5.8,5.8
				c3.2,0,5.8-2.6,5.8-5.8c0-1-0.3-1.9-0.7-2.7H31V27.9z M31,17.5h-6.7c-1-0.9-2.4-1.5-3.9-1.5c-1.5,0-2.9,0.6-3.9,1.5H9.9v-4.5
				c0-1,0.8-1.8,1.8-1.8h17.6c1,0,1.8,0.8,1.8,1.8V17.5z"/>
		</g>
	</g>
	<g>
		<path fill="#654637" d="M28,13.1h-0.9c-0.5,0-0.9,0.4-0.9,0.9v0.9c0,0.5,0.4,0.9,0.9,0.9H28c0.5,0,0.9-0.4,0.9-0.9V14
			C29,13.5,28.6,13.1,28,13.1z"/>
	</g>
</g>
</svg>
