<?xml version="1.0" encoding="utf-8"?>
<!-- Generator: Adobe Illustrator 18.0.0, SVG Export Plug-In . SVG Version: 6.00 Build 0)  -->
<!DOCTYPE svg PUBLIC "-//W3C//DTD SVG 1.1//EN" "http://www.w3.org/Graphics/SVG/1.1/DTD/svg11.dtd">
<svg version="1.1" id="Layer_1" xmlns="http://www.w3.org/2000/svg" xmlns:xlink="http://www.w3.org/1999/xlink" x="0px" y="0px"
	 viewBox="0 0 159.8 156.9" enable-background="new 0 0 159.8 156.9" xml:space="preserve">
<g>
	<rect x="88.4" y="119.7" fill="#FFFFFF" width="1.6" height="4.9"/>
	<rect x="106.2" y="127.6" fill="#FFFFFF" width="2" height="4.7"/>
	<path fill="#FFFFFF" d="M159.7,142.5l-6.2-16.5l6.2-16.5c0-0.1,0-0.2,0-0.3c-0.1-0.1-0.2-0.1-0.3-0.1h-4.6H2H0.3
		c-0.1,0-0.2,0.1-0.3,0.1c-0.1,0.1-0.1,0.2,0,0.3L6.2,126L0,142.5c0,0.1,0,0.2,0,0.3c0.1,0.1,0.2,0.1,0.3,0.1h51.4
		c8.7,4.8,17.6,9.4,26.6,13.6c0.5,0.2,1,0.3,1.5,0.3c0.5,0,1-0.1,1.5-0.3c9-4.2,17.9-8.8,26.6-13.6h51.4c0,0,0,0,0,0
		c0.2,0,0.3-0.1,0.3-0.3C159.8,142.6,159.7,142.5,159.7,142.5z M102.6,116.3c0-0.2,0.1-0.3,0.3-0.3h6.3c1.3,0,2.3,1,2.3,2.3v5.6
		c0,0.7-0.3,1.3-0.7,1.6c0.7,0.4,1.1,1.3,1.1,2v6c0,1.2-1.1,2.3-2.3,2.3h-6.6c-0.2,0-0.3-0.1-0.3-0.3V116.3z M96.5,116.3
		c0-0.2,0.1-0.3,0.3-0.3h3.1c0.2,0,0.3,0.1,0.3,0.3v19.3c0,0.2-0.1,0.3-0.3,0.3h-3.1c-0.2,0-0.3-0.1-0.3-0.3V116.3z M84.8,116.3
		c0-0.2,0.1-0.3,0.3-0.3h6.3c1.3,0,2.3,1,2.3,2.3v6.2c0,0.7-0.3,1.3-0.7,1.6c0.7,0.4,1.1,1.3,1.1,2v7.4c0,0.2-0.1,0.3-0.3,0.3h-3.1
		c-0.2,0-0.3-0.1-0.3-0.3v-7.4h-2v7.4c0,0.2-0.1,0.3-0.3,0.3h-3.1c-0.2,0-0.3-0.1-0.3-0.3V116.3z M73.8,116.3c0-0.2,0.1-0.3,0.3-0.3
		h8.5c0.2,0,0.3,0.1,0.3,0.3v3.1c0,0.2-0.1,0.3-0.3,0.3h-2.4v16c0,0.2-0.1,0.3-0.3,0.3h-3.1c-0.2,0-0.3-0.1-0.3-0.3v-16h-2.4
		c-0.2,0-0.3-0.1-0.3-0.3V116.3z M59.9,116.3c0-0.2,0.1-0.3,0.3-0.3h7.6c0.2,0,0.3,0.1,0.3,0.3v3.1c0,0.2-0.1,0.3-0.3,0.3h-4.3v4.3
		h2.9c0.2,0,0.3,0.1,0.3,0.3v3.1c0,0.2-0.1,0.3-0.3,0.3h-2.9v4.7h4.5c0.2,0,0.3,0.1,0.3,0.3v3.1c0,0.2-0.1,0.3-0.3,0.3h-7.9
		c-0.2,0-0.3-0.1-0.3-0.3V116.3z M48.2,116.3c0-0.2,0.1-0.3,0.3-0.3h3.1c0.2,0,0.3,0.1,0.3,0.3v8h2v-8c0-0.2,0.1-0.3,0.3-0.3h3
		c0.2,0,0.3,0.1,0.3,0.3v19.3c0,0.2-0.1,0.3-0.3,0.3h-3c-0.2,0-0.3-0.1-0.3-0.3v-7.7h-2v7.7c0,0.2-0.1,0.3-0.3,0.3h-3.1
		c-0.2,0-0.3-0.1-0.3-0.3V116.3z M26.8,128.9l-1.9,1.9l-2.9-2.9l-2.9,2.9l-1.9-1.9L20,126l-2.9-2.9l1.9-1.9l2.9,2.9l2.9-2.9l1.9,1.9
		l-2.9,2.9L26.8,128.9z M46.3,119.4c0,0.2-0.1,0.3-0.3,0.3h-2.4v16c0,0.2-0.1,0.3-0.3,0.3h-3c-0.2,0-0.3-0.1-0.3-0.3v-16h-2.4
		c-0.2,0-0.3-0.1-0.3-0.3v-3.1c0-0.2,0.1-0.3,0.3-0.3H46c0.2,0,0.3,0.1,0.3,0.3V119.4z M122.6,135.7c0,0.2-0.1,0.3-0.3,0.3h-7.9
		c-0.2,0-0.3-0.1-0.3-0.3v-19.3c0-0.2,0.1-0.3,0.3-0.3h7.6c0.2,0,0.3,0.1,0.3,0.3v3.1c0,0.2-0.1,0.3-0.3,0.3h-4.3v4.3h2.9
		c0.2,0,0.3,0.1,0.3,0.3v3.1c0,0.2-0.1,0.3-0.3,0.3h-2.9v4.7h4.5c0.2,0,0.3,0.1,0.3,0.3V135.7z M142.7,128.9l-1.9,1.9l-2.9-2.9
		l-2.9,2.9l-1.9-1.9l2.9-2.9l-2.9-2.9l1.9-1.9l2.9,2.9l2.9-2.9l1.9,1.9l-2.9,2.9L142.7,128.9z"/>
	<rect x="106.2" y="119.7" fill="#FFFFFF" width="1.6" height="4.3"/>
	<path fill="#FFFFFF" d="M146.1,106.1h2.9c1.4-21.7,1.1-43.7-0.8-65.4c-0.1-1.1-0.6-2-1.5-2.6C126.2,23.7,104.2,11,81.4,0.3
		c-1-0.5-2.1-0.5-3,0C55.6,11,33.6,23.7,13,38.1c-0.9,0.6-1.4,1.6-1.5,2.6c-1.9,21.7-2.1,43.6-0.8,65.4h4.1H146.1z M129,95.1
		c-0.1,0-0.3,0-0.4,0.1l-2.5,1.5l1.9-7.6l6.4,6.2L129,95.1z M28.8,93.8c-0.1-0.1-0.2-0.1-0.3-0.1c-0.1,0-0.1,0-0.2,0l-2.6,0.6
		l7.9-6.2l4.2,2l-6.1,5.3L28.8,93.8z M43.6,91.8l10.1-8.9l4,1.5l-8.1,10.1l-2.4-2.1c-0.1-0.1-0.2-0.2-0.4-0.2L43.6,91.8z M84.5,85.2
		l-5.8,11.8L72,93c-0.2-0.1-0.4-0.1-0.6,0l-15,6.3l18.8-26.8L93.8,86l-1.5,1.7l-6.9-2.9C85.1,84.7,84.7,84.8,84.5,85.2z
		 M101.7,102.4l6.1-21.9l9.4,7.3l-1.9,0.6c-0.3,0.1-0.5,0.3-0.5,0.6l-1.3,9.5l-6.1-0.2c-0.2,0-0.4,0.1-0.5,0.2L101.7,102.4z
		 M142.5,92.9l-14.6-11.5c-0.2-0.2-0.5-0.2-0.7-0.1l-5.5,2.3l-13.7-11.3c-0.3-0.2-0.7-0.2-1,0l-8.7,8.2L77.9,63.9V52.6h18.7
		c0,0,0,0,0,0c0.4,0,0.7-0.3,0.7-0.7c0-0.2-0.1-0.4-0.2-0.5l-4-6.3l4.1-6.5c0.1-0.2,0.1-0.5,0-0.7c-0.1-0.2-0.4-0.4-0.6-0.4H77.2
		h-3.1c-0.4,0-0.7,0.3-0.7,0.7v25.3L61.5,79l-7.8-2.3c-0.2-0.1-0.5,0-0.6,0.1l-10.8,8.5l-8.1-4.2c-0.2-0.1-0.5-0.1-0.8,0.1
		c-0.1,0.1-9.3,6.7-16.1,12.2c-0.6-16.8-0.2-33.7,1.2-50.4c19.4-13.5,40-25.4,61.4-35.4c21.3,10.1,42,22,61.4,35.4
		C142.6,59.6,143,76.3,142.5,92.9z"/>
</g>
</svg>
