<?xml version="1.0" encoding="utf-8"?>
<!-- Generator: Adobe Illustrator 18.0.0, SVG Export Plug-In . SVG Version: 6.00 Build 0)  -->
<!DOCTYPE svg PUBLIC "-//W3C//DTD SVG 1.1//EN" "http://www.w3.org/Graphics/SVG/1.1/DTD/svg11.dtd">
<svg version="1.1" id="Layer_1" xmlns="http://www.w3.org/2000/svg" xmlns:xlink="http://www.w3.org/1999/xlink" x="0px" y="0px"
	 viewBox="0 0 40.9 40.9" enable-background="new 0 0 40.9 40.9" xml:space="preserve">
<g>
	<g>
		<path fill="#654637" d="M20.4,0C9.2,0,0,9.2,0,20.4c0,11.3,9.2,20.4,20.4,20.4c11.3,0,20.4-9.2,20.4-20.4C40.9,9.2,31.7,0,20.4,0z
			 M31.9,20.9c-0.2,0-0.5,0-0.7-0.1c-0.5,2.7-2.3,5.3-4.9,6.8C13.8,35,6.3,24.7,6.3,24.7c1.3,1.2,3.1,1.9,5.1,1.9
			c2.2,0,4.1-0.9,5.5-2.3c0,0-2,0.3-2.1-1.1c-0.1-1,1.1-1.3,1.1-1.3s-1.3,0.2-2.3-0.5c-0.8-0.5-1.1-1.3-1.1-1.3s0.3-0.4,0.8-0.6
			c0.5-0.2,1.1-0.2,1.1-0.2s-1-0.1-2.1-1c-1.1-0.9-1-1.9-1-1.9s0.4-0.1,0.8-0.2c0.4-0.1,0.9-0.1,0.9-0.1s-1.2-0.5-1.7-1.4
			c-0.9-1.4-0.6-2.2-0.6-2.2s6.1,2.3,7.5,3.3c1.3,0.9,1.9,1.7,1.9,1.7s0.5-1.8,1.6-3.7c1.1-1.9,2.6-3.2,2.8-3.1
			c0.1,0.1-0.2,0.6-0.2,0.6s1.9-1.2,2-0.9c0.2,0.3-1.1,1-1.1,1s2.3-1.1,2.4-0.4c0.1,0.7-2.3,1.2-2.3,1.2s3.3-0.4,5.5,3.7
			c0.3,0.6,0.5,1.2,0.6,1.8c0.5,0.2,1,0.3,1.6,0.3c0.6,0,1.2-0.1,1.8-0.4c-0.6,0.9-1.6,1.5-2.8,1.5c-0.1,0-0.3,0-0.4,0
			c0,0,0,0.1,0,0.1c0.8,0.2,1.6,0.4,2.5,0.4c0.3,0,0.5,0,0.8,0C33.9,20.4,33,20.9,31.9,20.9z"/>
	</g>
</g>
</svg>
